<svg width="17" height="17" viewBox="0 0 17 17" fill="none" xmlns="http://www.w3.org/2000/svg">
<g clip-path="url(#clip0)">
<path d="M8.16699 0.5C3.75574 0.5 0.166992 4.08875 0.166992 8.5C0.166992 12.9113 3.75574 16.5 8.16699 16.5C12.5782 16.5 16.167 12.9113 16.167 8.5C16.167 4.08875 12.5782 0.5 8.16699 0.5ZM8.16699 15.3349C4.39824 15.3349 1.33205 12.2687 1.33205 8.5C1.33205 4.73125 4.39824 1.66506 8.16699 1.66506C11.9357 1.66506 15.0019 4.73125 15.0019 8.5C15.0019 12.2687 11.9357 15.3349 8.16699 15.3349Z" fill="black"/>
<path d="M12.8622 2.9972L2.64844 13.2109L3.4721 14.0346L13.6858 3.82086L12.8622 2.9972Z" fill="black"/>
</g>
<defs>
<clipPath id="clip0">
<rect width="16" height="16" fill="white" transform="translate(0.166992 0.5)"/>
</clipPath>
</defs>
</svg>
