<svg width="17" height="17" viewBox="0 0 17 17" fill="none" xmlns="http://www.w3.org/2000/svg">
<g clip-path="url(#clip0)">
<path d="M9.77756 12.9862L16.239 10.8618H16.2576L16.3115 10.8439C16.381 10.8207 16.4923 10.8619 16.5271 10.9732C16.5548 11.0616 16.5133 11.1827 16.3728 11.2338L9.86236 13.3742L9.59845 13.461L9.62305 13.7377C9.68265 14.4082 9.35443 15.0664 8.77087 15.4255L8.76973 15.4262C7.89533 15.969 6.75593 15.7105 6.21743 14.8429C5.67471 13.9685 5.93315 12.8291 6.80073 12.2906L7.03461 12.1455L6.94865 11.884L3.9858 2.87048L3.9858 2.87047L3.98534 2.86909C3.78031 2.25401 3.25229 1.84282 2.61968 1.77504L2.61968 1.77497L2.61315 1.7744L1.40759 1.66802C1.31342 1.6535 1.2295 1.55438 1.2361 1.44878C1.24138 1.36424 1.3303 1.28034 1.43489 1.29264L1.43487 1.29279L1.44502 1.29369L2.65729 1.40065C3.44848 1.47725 4.11423 2.00949 4.3558 2.74929L4.35608 2.75014L7.31893 11.7458L7.40384 12.0036L7.67465 11.9855C8.35203 11.9404 9.01376 12.2728 9.37232 12.8406L9.51814 13.0714L9.77756 12.9862Z" stroke="black" stroke-width="0.7"/>
<path d="M16.0827 8.47881L16.0833 8.48048C16.1252 8.60618 16.0621 8.73898 15.9271 8.78829L9.32778 10.9464L9.32589 10.9471C9.20016 10.989 9.06734 10.9259 9.01806 10.7908L6.93125 4.42337L6.93125 4.42337L6.93069 4.4217C6.8888 4.296 6.95186 4.16321 7.08687 4.1139L13.6862 1.95573L13.6862 1.95574L13.6881 1.95511C13.8138 1.9132 13.9466 1.9763 13.9959 2.11137L16.0827 8.47881Z" stroke="black" stroke-width="0.7"/>
</g>
<defs>
<clipPath id="clip0">
<rect width="16" height="16" fill="white" transform="translate(0.885742 0.5)"/>
</clipPath>
</defs>
</svg>
