<svg width="20" height="20" viewBox="0 0 20 20" fill="none" xmlns="http://www.w3.org/2000/svg">
<path d="M10.0002 18.9767C14.9459 18.9767 18.9769 14.9457 18.9769 9.99994C18.9769 5.0542 14.9459 1.02319 10.0002 1.02319C5.05445 1.02319 1.02344 5.0542 1.02344 9.99994C1.02344 14.9457 5.05445 18.9767 10.0002 18.9767ZM10.0002 2.27901C14.2482 2.27901 17.7211 5.73637 17.7211 9.99994C17.7211 14.2635 14.2637 17.7209 10.0002 17.7209C5.73662 17.7209 2.27925 14.248 2.27925 9.99994C2.27925 5.75188 5.75212 2.27901 10.0002 2.27901Z" fill="black"/>
<path d="M5.86027 10.5426H14.1238C14.4804 10.5426 14.7595 10.2635 14.7595 9.9069C14.7595 9.55031 14.4804 9.27124 14.1238 9.27124H5.86027C5.50368 9.27124 5.22461 9.55031 5.22461 9.9069C5.22461 10.2635 5.51918 10.5426 5.86027 10.5426Z" fill="black"/>
</svg>
