<svg width="14" height="14" viewBox="0 0 14 14" fill="none" xmlns="http://www.w3.org/2000/svg">
<g clip-path="url(#clip0)">
<path d="M7.00004 0C3.14022 0 0 3.14022 0 7.00004C0 10.8599 3.14022 14.0001 7.00004 14.0001C10.8599 14.0001 14.0001 10.8599 14.0001 7.00004C14.0001 3.14022 10.8598 0 7.00004 0ZM7.00004 12.8001C3.80198 12.8001 1.20002 10.1981 1.20002 7.00004C1.20002 3.80198 3.80198 1.20002 7.00004 1.20002C10.1981 1.20002 12.8001 3.80198 12.8001 7.00004C12.8001 10.1981 10.198 12.8001 7.00004 12.8001Z" fill="white"/>
<path d="M9.70874 4.29178C9.47437 4.0574 9.09431 4.0574 8.86034 4.29178L7.00017 6.15219L5.14 4.29178C4.90562 4.0574 4.52597 4.0574 4.29159 4.29178C4.05721 4.52616 4.05721 4.90581 4.29159 5.14019L6.15176 7.00052L4.29151 8.86093C4.05713 9.09531 4.05713 9.47496 4.29151 9.70934C4.40866 9.82649 4.5622 9.88515 4.71575 9.88515C4.8693 9.88515 5.02301 9.82657 5.14 9.70934L7.00017 7.84901L8.86034 9.70934C8.97749 9.82649 9.13103 9.88515 9.28458 9.88515C9.43813 9.88515 9.5916 9.82657 9.70883 9.70934C9.9432 9.47496 9.9432 9.09531 9.70883 8.86093L7.84858 7.0006L9.70874 5.14027C9.94312 4.90589 9.94312 4.52616 9.70874 4.29178Z" fill="white"/>
</g>
<defs>
<clipPath id="clip0">
<rect width="14" height="14" fill="white"/>
</clipPath>
</defs>
</svg>
