<svg width="17" height="16" viewBox="0 0 17 16" fill="none" xmlns="http://www.w3.org/2000/svg">
<g clip-path="url(#clip0)">
<path d="M13.9246 10.5205C13.5336 10.5205 13.1622 10.6736 12.882 10.9505C12.6018 11.2307 12.4455 11.5956 12.4455 11.9866C12.4455 12.3775 12.5986 12.7424 12.882 13.0226C13.1655 13.2996 13.5336 13.4527 13.9246 13.4527C14.7261 13.4527 15.3777 12.7946 15.3777 11.9866C15.3777 11.1786 14.7261 10.5205 13.9246 10.5205ZM13.9246 12.8011C13.475 12.8011 13.0971 12.4297 13.0971 11.9866C13.0971 11.5435 13.475 11.1721 13.9246 11.1721C14.3677 11.1721 14.7261 11.537 14.7261 11.9866C14.7261 12.4362 14.3677 12.8011 13.9246 12.8011ZM14.3025 5.63676C14.2439 5.58137 14.1657 5.55205 14.0842 5.55205H12.4129C12.2337 5.55205 12.0871 5.69866 12.0871 5.87785V8.5494C12.0871 8.72859 12.2337 8.8752 12.4129 8.8752H15.0649C15.2441 8.8752 15.3907 8.72859 15.3907 8.5494V6.76076C15.3907 6.66954 15.3516 6.58157 15.2832 6.51967L14.3025 5.63676ZM14.7391 8.2236H12.7387V6.20039H13.9572L14.7391 6.90411V8.2236ZM5.96857 10.5205C5.57761 10.5205 5.2062 10.6736 4.92601 10.9505C4.64583 11.2307 4.48944 11.5956 4.48944 11.9866C4.48944 12.3775 4.64257 12.7424 4.92601 13.0226C5.20946 13.2996 5.57761 13.4527 5.96857 13.4527C6.77004 13.4527 7.42164 12.7946 7.42164 11.9866C7.42164 11.1786 6.77004 10.5205 5.96857 10.5205ZM5.96857 12.8011C5.51897 12.8011 5.14104 12.4297 5.14104 11.9866C5.14104 11.5435 5.51897 11.1721 5.96857 11.1721C6.41166 11.1721 6.77004 11.537 6.77004 11.9866C6.77004 12.4362 6.41166 12.8011 5.96857 12.8011ZM3.79549 10.9212H3.14063V10.0546C3.14063 9.8754 2.99402 9.72879 2.81484 9.72879C2.63565 9.72879 2.48904 9.8754 2.48904 10.0546V11.247C2.48904 11.4262 2.63565 11.5728 2.81484 11.5728H3.79549C3.97468 11.5728 4.12129 11.4262 4.12129 11.247C4.12129 11.0678 3.97468 10.9212 3.79549 10.9212ZM5.44729 9.14561C5.44729 8.96642 5.30068 8.81981 5.12149 8.81981H1.16955C0.99036 8.81981 0.84375 8.96642 0.84375 9.14561C0.84375 9.3248 0.99036 9.47141 1.16955 9.47141H5.12149C5.30068 9.47141 5.44729 9.32806 5.44729 9.14561ZM1.83092 7.96948L5.78287 7.99229C5.96206 7.99229 6.10866 7.84893 6.11192 7.66974C6.11518 7.4873 5.96857 7.34069 5.78938 7.34069L1.83744 7.31788C1.83418 7.31788 1.83418 7.31788 1.83418 7.31788C1.65499 7.31788 1.50838 7.46123 1.50838 7.64042C1.50512 7.82287 1.65173 7.96948 1.83092 7.96948ZM2.49555 6.49035H6.4475C6.62669 6.49035 6.7733 6.34374 6.7733 6.16455C6.7733 5.98536 6.62669 5.83875 6.4475 5.83875H2.49555C2.31636 5.83875 2.16975 5.98536 2.16975 6.16455C2.16975 6.34374 2.31636 6.49035 2.49555 6.49035ZM16.7232 6.05052L14.3905 4.11853C14.3318 4.06966 14.2602 4.0436 14.182 4.0436H11.4387V2.87072C11.4387 2.69153 11.2921 2.54492 11.1129 2.54492H2.81484C2.63565 2.54492 2.48904 2.69153 2.48904 2.87072V5.25557C2.48904 5.43476 2.63565 5.58137 2.81484 5.58137C2.99402 5.58137 3.14063 5.43476 3.14063 5.25557V3.19652H10.7904V10.9212H8.11885C7.93966 10.9212 7.79305 11.0678 7.79305 11.247C7.79305 11.4262 7.93966 11.5728 8.11885 11.5728H12.0969C12.276 11.5728 12.4227 11.4262 12.4227 11.247C12.4227 11.0678 12.276 10.9212 12.0969 10.9212H11.442V4.6952H14.0679L16.1922 6.45451L16.1693 10.9147H15.8305C15.6513 10.9147 15.5047 11.0613 15.5047 11.2405C15.5047 11.4197 15.6513 11.5663 15.8305 11.5663H16.4919C16.6711 11.5663 16.8177 11.423 16.8177 11.2438L16.8437 6.30464C16.8405 6.2069 16.7981 6.11242 16.7232 6.05052Z" fill="#353535"/>
</g>
<defs>
<clipPath id="clip0">
<rect width="16" height="16" fill="white" transform="translate(0.84375)"/>
</clipPath>
</defs>
</svg>
