<?xml version="1.0" encoding="utf-8"?>
<!-- Generator: Adobe Illustrator 21.0.0, SVG Export Plug-In . SVG Version: 6.00 Build 0)  -->
<svg version="1.1" id="Capa_1" xmlns="http://www.w3.org/2000/svg" xmlns:xlink="http://www.w3.org/1999/xlink" x="0px" y="0px"
	 viewBox="0 0 65.4 65.4" style="enable-background:new 0 0 65.4 65.4;" xml:space="preserve">
<style type="text/css">
	.st0{fill:#54CCE8;}
</style>
<g>
	<g id="group-6svg">
		<path id="path-1_46_" class="st0" d="M65.4,35.3C65.4,51.7,52.2,65,35.8,65C19.4,65,6.1,51.7,6.1,35.3c0-16.4,13.3-29.6,29.6-29.6
			C52.2,5.7,65.4,18.9,65.4,35.3z"/>
		<path id="path-2_46_" d="M35,48.2h-5.4c-6.9,0-12.3-5.3-12.3-12.1c0-0.8,0.7-1.5,1.5-1.5c0.8,0,1.5,0.7,1.5,1.5
			c0,5.1,4.1,9.1,9.3,9.1H35c5.2,0,9.3-3.9,9.3-8.9c0-0.8,0.7-1.5,1.5-1.5s1.5,0.7,1.5,1.5C47.3,43,41.9,48.2,35,48.2z"/>
		<path id="path-3_46_" d="M25.3,23.3c-0.4,0-0.8-0.1-1.1-0.4c-1.4-1.4-3.8-1.5-5.1-0.1c-0.6,0.6-1.5,0.6-2.1,0
			c-0.6-0.6-0.6-1.5,0-2.1c2.5-2.5,6.8-2.5,9.4,0.1c0.6,0.6,0.6,1.5,0,2.1C26.1,23.1,25.7,23.3,25.3,23.3z"/>
		<path id="path-4_46_" d="M45.7,23.3c-0.4,0-0.8-0.1-1.1-0.4c-1.4-1.4-3.8-1.5-5.1-0.1c-0.6,0.6-1.5,0.6-2.1,0
			c-0.6-0.6-0.6-1.5,0-2.1c2.5-2.5,6.8-2.5,9.4,0.1c0.6,0.6,0.6,1.5,0,2.1C46.5,23.1,46.1,23.3,45.7,23.3z"/>
		<path id="path-5_46_" d="M31.1,62.8C14,62.8,0,48.8,0,31.6S14,0.5,31.1,0.5c17.2,0,31.1,14,31.1,31.1S48.3,62.8,31.1,62.8z
			 M31.1,3.5C15.6,3.5,3,16.1,3,31.6s12.6,28.1,28.1,28.1c15.5,0,28.1-12.6,28.1-28.1S46.7,3.5,31.1,3.5z"/>
	</g>
</g>
</svg>
