<svg width="25" height="25" viewBox="0 0 25 25" fill="none" xmlns="http://www.w3.org/2000/svg">
<path d="M11.193 3.28809H4.41503C4.1238 3.28809 3.8877 3.52419 3.8877 3.81541V10.5933C3.8877 10.8846 4.1238 11.1207 4.41503 11.1207H11.193C11.4842 11.1207 11.7203 10.8846 11.7203 10.5933V3.81538C11.7203 3.52415 11.4842 3.28809 11.193 3.28809ZM10.6657 10.066H4.94236V4.3427H10.6657V10.066Z" fill="#929292"/>
<path d="M11.193 13.4551H4.41503C4.1238 13.4551 3.8877 13.6912 3.8877 13.9824V20.7603C3.8877 21.0515 4.1238 21.2876 4.41503 21.2876H11.193C11.4842 21.2876 11.7203 21.0515 11.7203 20.7603V13.9824C11.7203 13.6912 11.4842 13.4551 11.193 13.4551ZM10.6657 20.2329H4.94236V14.5097H10.6657V20.2329Z" fill="#929292"/>
<path d="M21.36 3.28809H14.582C14.2908 3.28809 14.0547 3.52419 14.0547 3.81541V10.5933C14.0547 10.8846 14.2908 11.1207 14.582 11.1207H21.36C21.6513 11.1207 21.8874 10.8846 21.8874 10.5933V3.81538C21.8874 3.52415 21.6513 3.28809 21.36 3.28809ZM20.8327 10.066H15.1094V4.3427H20.8327V10.066Z" fill="#929292"/>
<path d="M21.3609 16.8442C21.0697 16.8442 20.8336 17.0803 20.8336 17.3716V20.2331H19.1016C18.8103 20.2331 18.5742 20.4692 18.5742 20.7604C18.5742 21.0517 18.8103 21.2878 19.1016 21.2878H21.3609C21.6522 21.2878 21.8883 21.0517 21.8883 20.7604V17.3716C21.8883 17.0803 21.6522 16.8442 21.3609 16.8442Z" fill="#929292"/>
<path d="M16.8414 13.4551H14.582C14.2908 13.4551 14.0547 13.6912 14.0547 13.9824V17.3714C14.0547 17.6626 14.2908 17.8987 14.582 17.8987C14.8732 17.8987 15.1094 17.6626 15.1094 17.3714V14.5097H16.8414C17.1326 14.5097 17.3687 14.2736 17.3687 13.9824C17.3687 13.6912 17.1326 13.4551 16.8414 13.4551Z" fill="#929292"/>
<path d="M8.17768 6.83158C8.07924 6.73349 7.94354 6.67725 7.80468 6.67725C7.66581 6.67725 7.53011 6.73349 7.43168 6.83158C7.33359 6.93001 7.27734 7.06571 7.27734 7.20457C7.27734 7.34343 7.33359 7.47948 7.43168 7.57757C7.52976 7.67565 7.66581 7.7319 7.80468 7.7319C7.94354 7.7319 8.07924 7.67565 8.17768 7.57757C8.27576 7.47913 8.33201 7.34343 8.33201 7.20457C8.33201 7.06571 8.27576 6.93001 8.17768 6.83158Z" fill="#929292"/>
<path d="M8.17768 16.9989C8.07959 16.9005 7.94354 16.8442 7.80468 16.8442C7.66581 16.8442 7.52976 16.9005 7.43168 16.9989C7.33359 17.097 7.27734 17.2327 7.27734 17.3716C7.27734 17.5104 7.33359 17.6465 7.43168 17.7446C7.52976 17.8426 7.66581 17.8989 7.80468 17.8989C7.94354 17.8989 8.07959 17.8426 8.17768 17.7446C8.27576 17.6461 8.33201 17.5104 8.33201 17.3716C8.33201 17.2327 8.27576 17.097 8.17768 16.9989Z" fill="#929292"/>
<path d="M18.3437 6.83158C18.2456 6.73349 18.1096 6.67725 17.9707 6.67725C17.8318 6.67725 17.6958 6.73349 17.5977 6.83158C17.4996 6.93001 17.4434 7.06571 17.4434 7.20457C17.4434 7.34343 17.4996 7.47913 17.5977 7.57757C17.6961 7.67565 17.8318 7.7319 17.9707 7.7319C18.1096 7.7319 18.2453 7.67565 18.3437 7.57757C18.4418 7.47913 18.498 7.34343 18.498 7.20457C18.498 7.06571 18.4418 6.93001 18.3437 6.83158Z" fill="#929292"/>
<path d="M18.3437 16.9989C18.2456 16.9005 18.1096 16.8442 17.9707 16.8442C17.8318 16.8442 17.6958 16.9005 17.5977 16.9989C17.4996 17.097 17.4434 17.2327 17.4434 17.3716C17.4434 17.5104 17.4996 17.6465 17.5977 17.7446C17.6962 17.8426 17.8318 17.8989 17.9707 17.8989C18.1096 17.8989 18.2453 17.8426 18.3437 17.7446C18.4418 17.6461 18.498 17.5104 18.498 17.3716C18.498 17.2327 18.4418 17.097 18.3437 16.9989Z" fill="#929292"/>
<path d="M21.3601 13.4551H20.2305C19.9392 13.4551 19.7031 13.6912 19.7031 13.9824C19.7031 14.2736 19.9392 14.5097 20.2305 14.5097H21.3601C21.6514 14.5097 21.8875 14.2736 21.8875 13.9824C21.8875 13.6912 21.6514 13.4551 21.3601 13.4551Z" fill="#929292"/>
<path d="M15.7117 20.2334H14.582C14.2908 20.2334 14.0547 20.4695 14.0547 20.7607C14.0547 21.0519 14.2908 21.288 14.582 21.288H15.7117C16.0029 21.288 16.239 21.0519 16.239 20.7607C16.239 20.4695 16.0029 20.2334 15.7117 20.2334Z" fill="#929292"/>
</svg>
