<svg width="17" height="17" viewBox="0 0 17 17" fill="none" xmlns="http://www.w3.org/2000/svg">
<g clip-path="url(#clip0)">
<path d="M15.869 6.20165L13.9022 4.5602V2.23147C13.9022 2.0304 13.7267 1.87686 13.522 1.87686H10.6595L9.51157 0.919045C8.83525 0.35971 7.8555 0.35971 7.17918 0.922701L6.03126 1.87686H3.13222C2.93115 1.87686 2.75202 2.02675 2.75202 2.23147V4.59676L0.821759 6.20165C0.741332 6.27111 0.693807 6.37713 0.697462 6.48315H0.704774V14.6684C0.704774 15.6774 1.51636 16.5 2.5217 16.5H14.1654C15.1744 16.5 15.9823 15.6738 15.9823 14.6684V6.48315H15.9896C15.9969 6.37347 15.9531 6.27111 15.869 6.20165ZM13.9022 5.51071L15.0537 6.46852L13.9022 7.32398V5.51071ZM7.64712 1.48204C8.05291 1.1457 8.64149 1.14936 9.04729 1.48569L9.51157 1.87686H7.17552L7.64712 1.48204ZM3.48317 2.60802H13.171V7.86869L9.00707 10.9688C8.61225 11.2576 8.0785 11.2576 7.68733 10.9688L3.48317 7.83944V2.60802ZM2.75202 5.54361V7.29473L1.637 6.46487L2.75202 5.54361ZM15.2548 14.6648C15.2585 15.2716 14.7723 15.7652 14.169 15.7688H2.5217C1.9185 15.7652 1.43228 15.2716 1.43593 14.6684V7.21065L7.25595 11.5574C7.90302 12.0363 8.78772 12.0363 9.4348 11.5574L15.2548 7.21065V14.6648Z" fill="black"/>
<path d="M8.05258 5.5332H6.07847C5.8774 5.5332 5.71289 5.69771 5.71289 5.89878C5.71289 6.09985 5.8774 6.26436 6.07847 6.26436H8.05258C8.25365 6.26436 8.41816 6.09985 8.41816 5.89878C8.41816 5.69771 8.25365 5.5332 8.05258 5.5332Z" fill="black"/>
<path d="M10.6116 7.36133H6.07847C5.8774 7.36133 5.71289 7.52584 5.71289 7.72691C5.71289 7.92798 5.8774 8.09249 6.07847 8.09249H10.6116C10.8127 8.09249 10.9772 7.92798 10.9772 7.72691C10.9772 7.52584 10.8127 7.36133 10.6116 7.36133Z" fill="black"/>
</g>
<defs>
<clipPath id="clip0">
<rect width="16" height="16" fill="white" transform="translate(0.34375 0.5)"/>
</clipPath>
</defs>
</svg>
