<svg width="17" height="17" viewBox="0 0 17 17" fill="none" xmlns="http://www.w3.org/2000/svg">
<g clip-path="url(#clip0)">
<path d="M2.16699 13.5742C1.89083 13.5742 1.66699 13.8792 1.66699 14.2552V15.8186C1.66699 16.1946 1.89083 16.4996 2.16699 16.4996C2.44311 16.4996 2.66699 16.1946 2.66699 15.8186V14.2552C2.66699 13.8792 2.44307 13.5742 2.16699 13.5742Z" fill="black"/>
<path d="M5.43555 10.3066C5.15943 10.3066 4.93555 10.6116 4.93555 10.9876V15.8197C4.93555 16.1957 5.15943 16.5007 5.43555 16.5007C5.71167 16.5007 5.93555 16.1957 5.93555 15.8197V10.9876C5.93555 10.6116 5.71163 10.3066 5.43555 10.3066Z" fill="black"/>
<path d="M8.7041 7.03711C8.42798 7.03711 8.2041 7.34202 8.2041 7.71808V15.8189C8.2041 16.1949 8.42798 16.4998 8.7041 16.4998C8.98018 16.4998 9.2041 16.1949 9.2041 15.8189V7.71808C9.2041 7.34202 8.98018 7.03711 8.7041 7.03711Z" fill="black"/>
<path d="M11.9727 3.76953C11.6965 3.76953 11.4727 4.07444 11.4727 4.4505V15.82C11.4727 16.196 11.6965 16.5009 11.9727 16.5009C12.2488 16.5009 12.4727 16.196 12.4727 15.82V4.4505C12.4727 4.07444 12.2488 3.76953 11.9727 3.76953Z" fill="black"/>
<path d="M15.708 0.5C15.4319 0.5 15.208 0.804911 15.208 1.18097V15.8191C15.208 16.1951 15.4319 16.5 15.708 16.5C15.9841 16.5 16.208 16.1951 16.208 15.8191V1.18097C16.208 0.804911 15.9841 0.5 15.708 0.5Z" fill="black"/>
</g>
<defs>
<clipPath id="clip0">
<rect width="16" height="16" fill="white" transform="translate(0.885742 0.5)"/>
</clipPath>
</defs>
</svg>
