<svg width="17" height="17" viewBox="0 0 17 17" fill="none" xmlns="http://www.w3.org/2000/svg">
<g clip-path="url(#clip0)">
<path d="M8.80108 7.86521C8.62544 8.04085 8.62544 8.32254 8.80108 8.49818C9.52685 9.22395 9.52685 10.4037 8.80108 11.1295L4.98998 14.9406C4.26421 15.6664 3.08443 15.6664 2.35866 14.9406L1.78534 14.3673C1.05957 13.6415 1.05957 12.4617 1.78534 11.736L5.59644 7.92486C5.77208 7.74922 5.77208 7.46753 5.59644 7.29189C5.4208 7.11625 5.13911 7.11625 4.96347 7.29189L1.15237 11.103C0.632068 11.6233 0.34375 12.3159 0.34375 13.0516C0.34375 13.7873 0.628754 14.48 1.15237 15.0003L1.72569 15.5736C2.26256 16.1104 2.96844 16.3789 3.67432 16.3789C4.3802 16.3789 5.08609 16.1104 5.62295 15.5736L9.43406 11.7625C10.5078 10.6887 10.5078 8.93895 9.43406 7.86521C9.26173 7.68957 8.97672 7.68957 8.80108 7.86521Z" fill="black"/>
<path d="M15.5381 2.85909L14.9648 2.28577C13.8911 1.21203 12.1413 1.21203 11.0676 2.28577L7.25647 6.09687C6.18274 7.17061 6.18274 8.9204 7.25647 9.99414C7.43211 10.1698 7.7138 10.1698 7.88944 9.99414C8.06509 9.8185 8.06509 9.53681 7.88944 9.36116C7.16368 8.6354 7.16368 7.45561 7.88944 6.72985L11.7005 2.91875C12.4263 2.19298 13.6061 2.19298 14.3318 2.91875L14.9052 3.49207C15.6309 4.21783 15.6309 5.39762 14.9052 6.12338L11.0941 9.93449C10.9184 10.1101 10.9184 10.3918 11.0941 10.5675C11.1802 10.6536 11.2962 10.7 11.4089 10.7C11.5216 10.7 11.6376 10.6569 11.7237 10.5675L15.5348 6.75636C16.0551 6.23606 16.3434 5.54343 16.3434 4.80773C16.3434 4.07202 16.0584 3.37939 15.5381 2.85909Z" fill="black"/>
</g>
<defs>
<clipPath id="clip0">
<rect width="16" height="16" fill="white" transform="translate(0.34375 0.929688)"/>
</clipPath>
</defs>
</svg>
