<svg width="17" height="17" viewBox="0 0 17 17" fill="none" xmlns="http://www.w3.org/2000/svg">
<g clip-path="url(#clip0)">
<path d="M16.3027 8.38867C16.3027 3.97762 12.7138 0.388672 8.30273 0.388672C3.89168 0.388672 0.302734 3.97762 0.302734 8.38867C0.302734 10.7186 1.30463 12.8186 2.89939 14.2819L2.89183 14.2886L3.15132 14.5074C3.16819 14.5216 3.18652 14.5333 3.20339 14.5472C3.34128 14.6615 3.48412 14.7701 3.62957 14.8751C3.6767 14.9091 3.72383 14.9431 3.77183 14.9763C3.92717 15.0834 4.08659 15.1849 4.2495 15.2812C4.28499 15.3021 4.32077 15.3225 4.35655 15.3429C4.53488 15.4444 4.71699 15.5401 4.90346 15.6279C4.91713 15.6343 4.9311 15.6402 4.94477 15.6466C5.55248 15.929 6.20121 16.1365 6.87961 16.2589C6.89735 16.2621 6.9151 16.2653 6.93313 16.2685C7.14375 16.3049 7.3567 16.334 7.57226 16.3535C7.59844 16.3558 7.62463 16.3573 7.6511 16.3596C7.86579 16.3773 8.08281 16.3887 8.30273 16.3887C8.52063 16.3887 8.73561 16.3773 8.94913 16.3602C8.97619 16.3578 9.00324 16.3564 9.0303 16.3541C9.24412 16.3346 9.45532 16.3063 9.6639 16.2706C9.68193 16.2674 9.70026 16.2642 9.7183 16.2607C10.3865 16.1408 11.0259 15.9381 11.6258 15.6629C11.6479 15.6527 11.6703 15.6431 11.6924 15.6326C11.8719 15.5482 12.0473 15.4572 12.2192 15.3603C12.262 15.3362 12.3045 15.3117 12.347 15.2867C12.5035 15.1945 12.6574 15.0982 12.8069 14.9958C12.8607 14.9591 12.9134 14.9205 12.9666 14.8821C13.0943 14.7901 13.2197 14.6953 13.3416 14.5961C13.3686 14.5743 13.3977 14.5554 13.4242 14.533L13.6904 14.3107L13.6825 14.304C15.2912 12.8402 16.3027 10.7305 16.3027 8.38867ZM0.884553 8.38867C0.884553 4.2982 4.21226 0.97049 8.30273 0.97049C12.3932 0.97049 15.7209 4.2982 15.7209 8.38867C15.7209 10.5929 14.7536 12.5746 13.2223 13.9343C13.1368 13.8752 13.0507 13.8223 12.9625 13.7781L10.4994 12.5466C10.2783 12.4361 10.141 12.2138 10.141 11.9669V11.1066C10.198 11.0362 10.2582 10.9565 10.3205 10.869C10.6393 10.4186 10.895 9.91769 11.0815 9.37864C11.4501 9.20351 11.688 8.83638 11.688 8.42183V7.39056C11.688 7.13834 11.5955 6.89369 11.43 6.7014V5.34373C11.4451 5.19274 11.4987 4.34067 10.8822 3.63784C10.3461 3.02576 9.4783 2.71594 8.30273 2.71594C7.12717 2.71594 6.25939 3.02576 5.72324 3.63754C5.10681 4.34038 5.16033 5.19245 5.17546 5.34344V6.70111C5.01023 6.8934 4.91743 7.13805 4.91743 7.39027V8.42155C4.91743 8.74184 5.06113 9.0406 5.30724 9.2422C5.54288 10.1653 6.02782 10.864 6.20703 11.1008V11.9427C6.20703 12.1801 6.07757 12.3983 5.86899 12.5123L3.56877 13.767C3.49546 13.8069 3.42273 13.8534 3.35001 13.9055C1.83757 12.5463 0.884553 10.5769 0.884553 8.38867ZM12.6544 14.3907C12.5526 14.4646 12.4491 14.5362 12.344 14.6045C12.2958 14.6359 12.2478 14.6674 12.1986 14.6979C12.0613 14.7829 11.9216 14.8637 11.7791 14.9394C11.7477 14.9559 11.716 14.9717 11.6843 14.9879C11.3567 15.1558 11.0178 15.3001 10.6696 15.4173C10.6574 15.4214 10.6451 15.4258 10.6326 15.4298C10.4502 15.4903 10.2655 15.5442 10.0787 15.5904C10.0782 15.5904 10.0776 15.5907 10.077 15.5907C9.88848 15.6373 9.69764 15.6759 9.50564 15.7077C9.50041 15.7085 9.49517 15.7097 9.48993 15.7106C9.30928 15.7399 9.12717 15.7612 8.94448 15.7772C8.91219 15.7801 8.8799 15.7821 8.84732 15.7845C8.66666 15.7981 8.48513 15.8069 8.30273 15.8069C8.1183 15.8069 7.93444 15.7978 7.75146 15.7842C7.71975 15.7818 7.68804 15.7798 7.65662 15.7769C7.47219 15.7606 7.28863 15.7388 7.10681 15.7091C7.09866 15.7077 7.09052 15.7062 7.08237 15.7047C6.69779 15.6405 6.31932 15.5459 5.95073 15.4223C5.93939 15.4185 5.92775 15.4144 5.91641 15.4106C5.73343 15.3484 5.55248 15.2794 5.37473 15.2032C5.37357 15.2026 5.37212 15.2021 5.37095 15.2015C5.20281 15.129 5.03786 15.0487 4.87495 14.9641C4.85372 14.953 4.83219 14.9426 4.81124 14.9312C4.66259 14.8518 4.51713 14.766 4.37372 14.6764C4.33124 14.6496 4.28906 14.6226 4.24717 14.5952C4.1151 14.5088 3.98477 14.4189 3.85793 14.3238C3.84484 14.3139 3.83233 14.3034 3.81924 14.2935C3.82855 14.2883 3.83786 14.2831 3.84717 14.2778L6.14739 13.0231C6.54303 12.8073 6.78884 12.3933 6.78884 11.9427L6.78855 10.8949L6.72164 10.814C6.71524 10.8067 6.0863 10.0416 5.84862 9.00569L5.82215 8.89049L5.72295 8.8262C5.58302 8.73573 5.49924 8.58445 5.49924 8.42125V7.38998C5.49924 7.25471 5.55655 7.12874 5.66128 7.0342L5.75728 6.94751V5.32714L5.75466 5.28904C5.75379 5.28205 5.66797 4.58242 6.16077 4.02067C6.58142 3.54125 7.3023 3.29776 8.30273 3.29776C9.29939 3.29776 10.0179 3.53922 10.4398 4.01514C10.932 4.57107 10.8514 5.2838 10.8508 5.28962L10.8482 6.94809L10.9442 7.03478C11.0486 7.12904 11.1062 7.25529 11.1062 7.39056V8.42183C11.1062 8.62925 10.9651 8.81747 10.7627 8.88002L10.6181 8.92453L10.5715 9.06853C10.3999 9.60176 10.1555 10.0943 9.84543 10.5324C9.76921 10.64 9.69503 10.7354 9.63132 10.8085L9.55917 10.8908V11.9669C9.55917 12.4358 9.81983 12.8576 10.2393 13.0671L12.7024 14.2985C12.7182 14.3063 12.7336 14.3145 12.749 14.3226C12.7179 14.3462 12.6859 14.368 12.6544 14.3907Z" fill="black"/>
</g>
<defs>
<clipPath id="clip0">
<rect width="16" height="16" fill="white" transform="translate(0.302734 0.388672)"/>
</clipPath>
</defs>
</svg>
