<?xml version="1.0" encoding="utf-8"?>
<!-- Generator: Adobe Illustrator 21.0.0, SVG Export Plug-In . SVG Version: 6.00 Build 0)  -->
<svg version="1.1" id="Capa_1" xmlns="http://www.w3.org/2000/svg" xmlns:xlink="http://www.w3.org/1999/xlink" x="0px" y="0px"
	 viewBox="0 0 64.5 64.5" style="enable-background:new 0 0 64.5 64.5;" xml:space="preserve">
<style type="text/css">
	.st0{fill:#EDC951;}
</style>
<g>
	<g id="group-9svg">
		<path id="path-1_49_" class="st0" d="M64.5,34.9c0,16.4-13.3,29.6-29.6,29.6c-16.4,0-29.6-13.3-29.6-29.6
			c0-16.4,13.3-29.6,29.6-29.6C51.2,5.2,64.5,18.5,64.5,34.9z"/>
		<path id="path-2_49_" d="M45.8,43.8h-28c-0.8,0-1.5-1.5-1.5-2.3c0-0.8,0.7-0.7,1.5-0.7h28c0.8,0,1.5-0.2,1.5,0.7
			C47.3,42.3,46.6,43.8,45.8,43.8z"/>
		<path id="path-3_49_" d="M45,23c0,2-1.6,3.6-3.6,3.6S37.8,25,37.8,23c0-2,1.6-3.6,3.6-3.6C43.4,19.4,45,21,45,23z"/>
		<path id="path-4_49_" d="M24.4,23c0,2-1.6,3.6-3.6,3.6c-2,0-3.6-1.6-3.6-3.6c0-2,1.6-3.6,3.6-3.6C22.8,19.4,24.4,21,24.4,23z"/>
		<path id="path-5_49_" d="M31.1,62.3C14,62.3,0,48.3,0,31.1S14,0,31.1,0s31.1,14,31.1,31.1S48.3,62.3,31.1,62.3z M31.1,3
			C15.6,3,3,15.6,3,31.1s12.6,28.1,28.1,28.1c15.5,0,28.1-12.6,28.1-28.1S46.7,3,31.1,3z"/>
	</g>
</g>
</svg>
