<?xml version="1.0" encoding="utf-8"?>
<!-- Generator: Adobe Illustrator 21.0.0, SVG Export Plug-In . SVG Version: 6.00 Build 0)  -->
<svg version="1.1" id="Capa_1" xmlns="http://www.w3.org/2000/svg" xmlns:xlink="http://www.w3.org/1999/xlink" x="0px" y="0px"
	 viewBox="0 0 65.4 65.4" style="enable-background:new 0 0 65.4 65.4;" xml:space="preserve">
<style type="text/css">
	.st0{fill:#EA283C;}
</style>
<g>
	<g id="group-3svg">
		<path id="path-1_21_" class="st0" d="M65.4,34.9C65.4,51.5,52,65,35.4,65C18.7,65,5.3,51.5,5.3,34.9S18.7,4.8,35.4,4.8
			C52,4.8,65.4,18.3,65.4,34.9z"/>
		<path id="path-2_21_" d="M45.6,23.8c0,2-1.6,3.6-3.6,3.6s-3.6-1.6-3.6-3.6s1.6-3.6,3.6-3.6S45.6,21.8,45.6,23.8z"/>
		<path id="path-3_21_" d="M24.7,23.8c0,2-1.6,3.6-3.6,3.6c-2,0-3.6-1.6-3.6-3.6s1.6-3.6,3.6-3.6C23.1,20.1,24.7,21.8,24.7,23.8z"/>
		<path id="path-4_21_" d="M19.2,51c-0.8,0-1.5-0.7-1.5-1.5c0-6.5,5.2-11.7,11.6-11.7h5.1C40.8,37.7,46,43,46,49.4
			c0,0.8-0.7,1.5-1.5,1.5S43,50.2,43,49.4c0-4.8-3.9-8.7-8.6-8.7h-5.1c-4.7,0-8.6,3.9-8.6,8.7C20.7,50.3,20,51,19.2,51z"/>
		<path id="path-5_21_" d="M31.6,63.6C14.2,63.6,0,49.5,0,32.1C0,14.6,14.2,0.5,31.6,0.5c17.4,0,31.6,14.2,31.6,31.6
			C63.2,49.5,49,63.6,31.6,63.6z M31.6,3.5C15.8,3.5,3,16.3,3,32.1c0,15.8,12.8,28.6,28.6,28.6c15.8,0,28.6-12.8,28.6-28.6
			C60.2,16.3,47.4,3.5,31.6,3.5z"/>
	</g>
</g>
</svg>
