<svg width="17" height="17" viewBox="0 0 17 17" fill="none" xmlns="http://www.w3.org/2000/svg">
<g clip-path="url(#clip0)">
<path d="M13.8195 7.04297H13.5842V4.95847C13.5842 2.26418 11.3936 0.0703125 8.69602 0.0703125C6.00174 0.0703125 3.80787 2.26087 3.80787 4.95847C3.80787 5.20702 4.00671 5.40586 4.25526 5.40586C4.50381 5.40586 4.70265 5.20702 4.70265 4.95847C4.70265 2.75797 6.49221 0.965093 8.69602 0.965093C10.8965 0.965093 12.6894 2.75465 12.6894 4.95847V7.04297H3.57589C3.09868 7.04297 2.71094 7.43071 2.71094 7.90793V13.4788C2.71094 14.9071 3.87415 16.0703 5.30249 16.0703H12.0929C13.5212 16.0703 14.6844 14.9071 14.6844 13.4788V7.90793C14.6844 7.43071 14.2967 7.04297 13.8195 7.04297ZM13.7896 13.4788C13.7896 14.4133 13.0307 15.1755 12.0929 15.1755H5.3058C4.37125 15.1755 3.60903 14.4166 3.60903 13.4788V7.93775H13.7896V13.4788Z" fill="black"/>
<path d="M8.69895 13.2964C9.62356 13.2964 10.3725 12.5441 10.3725 11.6228C10.3725 10.6982 9.62024 9.94922 8.69895 9.94922C7.77435 9.94922 7.02539 10.7015 7.02539 11.6228C7.02539 12.5441 7.77435 13.2964 8.69895 13.2964ZM8.69895 10.8407C9.12977 10.8407 9.47774 11.192 9.47774 11.6195C9.47774 12.047 9.12977 12.4016 8.69895 12.4016C8.26814 12.4016 7.92017 12.0503 7.92017 11.6228C7.92017 11.1953 8.26814 10.8407 8.69895 10.8407Z" fill="black"/>
</g>
<defs>
<clipPath id="clip0">
<rect width="16" height="16" fill="white" transform="translate(0.697266 0.0703125)"/>
</clipPath>
</defs>
</svg>
