<svg width="25" height="25" viewBox="0 0 25 25" fill="none" xmlns="http://www.w3.org/2000/svg">
<path d="M22.9648 12.3433L13.847 2.34863V8.33557H12.7879C10.1641 8.33557 7.6973 9.35699 5.84196 11.2117C3.98662 13.0664 2.96484 15.5324 2.96484 18.1554V22.3486L4.71471 20.432C7.05545 17.8683 10.3781 16.3853 13.847 16.3516V22.3381L22.9648 12.3433ZM4.13727 19.3356V18.1554C4.13727 15.8455 5.03709 13.6737 6.67095 12.0404C8.30481 10.4071 10.4772 9.5076 12.7879 9.5076H15.0193V5.37308L21.3783 12.3433L15.0193 19.3137V15.1791H13.9675C10.2669 15.1791 6.70819 16.689 4.13727 19.3356V19.3356Z" fill="#929292"/>
</svg>
