<svg width="17" height="17" viewBox="0 0 17 17" fill="none" xmlns="http://www.w3.org/2000/svg">
<g clip-path="url(#clip0)">
<path d="M16.9863 6.8455L16.6494 4.96972C16.6484 4.96366 16.6469 4.95772 16.6454 4.95181C16.6446 4.94872 16.6437 4.94566 16.6428 4.94256C16.6404 4.93447 16.6376 4.92662 16.6345 4.91891C16.6333 4.91594 16.6321 4.913 16.6307 4.91009C16.6267 4.90125 16.6223 4.89263 16.6173 4.88438C16.616 4.88216 16.6145 4.88 16.6131 4.87781C16.6082 4.87019 16.6029 4.86284 16.5972 4.85581C16.5964 4.85475 16.5957 4.85353 16.5948 4.85244L14.709 2.59381V0.58075C14.709 0.441187 14.596 0.328125 14.4564 0.328125H3.52398C3.38442 0.328125 3.27136 0.441219 3.27136 0.58075V2.594L1.3872 4.85081C1.38705 4.851 1.38689 4.85119 1.38673 4.85138L1.38583 4.8525C1.38552 4.85287 1.38533 4.85328 1.38502 4.85362C1.3782 4.86184 1.37205 4.87056 1.3663 4.87962C1.36548 4.88091 1.36461 4.88213 1.36383 4.88344C1.35836 4.89241 1.35355 4.90175 1.3492 4.91147C1.34836 4.91334 1.34758 4.91528 1.34677 4.91716C1.34277 4.92678 1.33911 4.93663 1.3363 4.94688C1.33627 4.94703 1.33617 4.94722 1.33614 4.94741C1.33411 4.95475 1.33242 4.96219 1.33105 4.96981L0.994203 6.84556C0.991547 6.86025 0.990234 6.87516 0.990234 6.89016C0.990234 7.65753 1.49527 8.309 2.19036 8.53006V16.0755C2.19036 16.2151 2.30345 16.3281 2.44298 16.3281H3.95508C4.09464 16.3281 4.2077 16.2151 4.2077 16.0755C4.2077 15.9359 4.09464 15.8229 3.95508 15.8229H2.69564V8.61031C2.7007 8.61034 2.7057 8.61069 2.71077 8.61069H2.87386C3.49433 8.61069 4.03911 8.28047 4.34183 7.78659C4.64455 8.28044 5.18923 8.61069 5.8097 8.61069H5.9728C6.59327 8.61069 7.13808 8.2805 7.4408 7.78666C7.74352 8.28047 8.2882 8.61069 8.90864 8.61069H9.07173C9.6922 8.61069 10.2369 8.28047 10.5397 7.78666C10.8424 8.2805 11.3871 8.61069 12.0075 8.61069H12.1707C12.7912 8.61069 13.3359 8.28047 13.6387 7.78659C13.9414 8.28047 14.4861 8.61069 15.1066 8.61069H15.2697C15.2748 8.61069 15.2798 8.61034 15.2848 8.61031V15.8229H14.3779V11.3789V10.0315C14.3779 9.89197 14.2648 9.77891 14.1252 9.77891H10.5397C10.4001 9.77891 10.2871 9.89197 10.2871 10.0315V11.3789V15.8229H4.76327C4.6237 15.8229 4.51064 15.936 4.51064 16.0755C4.51064 16.2151 4.6237 16.3281 4.76327 16.3281H10.5397H14.1251H15.5374C15.677 16.3281 15.79 16.2151 15.79 16.0755V8.53006C16.4852 8.30897 16.9902 7.6575 16.9902 6.89016C16.9902 6.87519 16.9889 6.86025 16.9863 6.8455ZM13.8725 15.8229H10.7923V11.6315H13.8725V15.8229V15.8229ZM13.8725 11.1263H10.7923V10.2842H13.8725V11.1263V11.1263ZM3.77664 0.833375H14.2038V2.38359H3.77664V0.833375ZM10.1448 4.76175H7.8357L8.12011 2.88888H9.86036L10.1448 4.76175ZM4.0912 6.85866C4.08986 6.86909 4.08917 6.87959 4.08917 6.89016C4.08917 7.56028 3.54395 8.10544 2.87386 8.10544H2.71077C2.04783 8.10544 1.50717 7.57188 1.4957 6.91159L1.79105 5.26703H4.29127L4.0912 6.85866ZM2.11973 4.76175L3.68336 2.88888H5.34136L4.4203 4.76175H2.11973ZM7.18848 6.87653C7.18823 6.88103 7.18811 6.88559 7.18811 6.89009C7.18811 7.56025 6.64289 8.10541 5.9728 8.10541H5.8097C5.14464 8.10541 4.60264 7.56841 4.59455 6.90522L4.69161 6.13287L4.80045 5.267H7.2752L7.18848 6.87653ZM7.32464 4.76175H4.98339L5.90445 2.88888H7.60905L7.32464 4.76175ZM9.07177 8.10544H8.90867C8.24073 8.10544 7.69692 7.56375 7.69345 6.89663L7.71427 6.51006L7.78123 5.267H10.1993L10.2734 6.64272L10.2871 6.89659C10.2836 7.56375 9.7397 8.10544 9.07177 8.10544ZM10.3714 2.88888H12.076L12.9971 4.76175H10.6558L10.3714 2.88888ZM12.1707 8.10544H12.0075C11.3375 8.10544 10.7924 7.56025 10.7924 6.89016C10.7924 6.88559 10.7922 6.88106 10.792 6.87659L10.7053 5.26706H13.18L13.3859 6.90528C13.3778 7.56844 12.8358 8.10544 12.1707 8.10544ZM13.5602 4.76175L12.6391 2.88888H14.2972L15.8609 4.76175H13.5602ZM15.2696 8.10544H15.1065C14.4364 8.10544 13.8913 7.56025 13.8913 6.89016C13.8913 6.87963 13.8906 6.86909 13.8893 6.85862L13.6892 5.267H16.1895L16.4848 6.91156C16.4733 7.57187 15.9326 8.10544 15.2696 8.10544Z" fill="black"/>
<path d="M9.18324 9.77734H3.95282C3.81326 9.77734 3.7002 9.89041 3.7002 10.03V13.2204C3.7002 13.3599 3.81326 13.473 3.95282 13.473H9.18318C9.32274 13.473 9.43584 13.3599 9.43584 13.2204V10.03C9.43587 9.89041 9.32277 9.77734 9.18324 9.77734ZM4.20544 12.9678V10.2826H8.93056V12.9678H4.20544V12.9678Z" fill="black"/>
<path d="M13.4363 1.35547H4.61102C4.47146 1.35547 4.3584 1.46856 4.3584 1.60809C4.3584 1.74762 4.47146 1.86072 4.61102 1.86072H13.4363C13.5758 1.86072 13.6889 1.74762 13.6889 1.60809C13.6889 1.46856 13.5758 1.35547 13.4363 1.35547Z" fill="black"/>
</g>
<defs>
<clipPath id="clip0">
<rect width="16" height="16" fill="white" transform="translate(0.990234 0.328125)"/>
</clipPath>
</defs>
</svg>
