<svg width="18" height="19" viewBox="0 0 18 19" fill="none" xmlns="http://www.w3.org/2000/svg">
<g clip-path="url(#clip0)">
<path d="M15.2085 9.43796C14.8569 8.66438 14.3458 7.97006 13.7071 7.39843L13.1801 6.92572C13.1622 6.91011 13.1406 6.89903 13.1173 6.89346C13.094 6.88789 13.0697 6.88799 13.0465 6.89376C13.0232 6.89953 13.0018 6.91078 12.984 6.92654C12.9663 6.9423 12.9527 6.96208 12.9446 6.98415L12.7092 7.64452C12.5625 8.0588 12.2926 8.48193 11.9105 8.89798C11.8851 8.92454 11.8562 8.93162 11.8362 8.93339C11.8163 8.93516 11.7855 8.93162 11.7584 8.90683C11.733 8.88559 11.7203 8.85372 11.7221 8.82185C11.7892 7.75605 11.4632 6.55393 10.7496 5.24558C10.1592 4.15854 9.33877 3.31051 8.3137 2.71918L7.56573 2.28897C7.46793 2.23232 7.34296 2.30667 7.3484 2.41821L7.38824 3.26802C7.41541 3.84872 7.34659 4.36214 7.18359 4.78881C6.98437 5.31109 6.69822 5.79619 6.33238 6.23171C6.07779 6.53439 5.78922 6.80816 5.47212 7.04788C4.7084 7.62179 4.08739 8.35717 3.65561 9.19895C3.22489 10.0481 3.00053 10.9829 3 11.9307C3 12.7664 3.16843 13.5754 3.50167 14.3385C3.82344 15.0732 4.28778 15.7399 4.86903 16.3019C5.45582 16.8684 6.13679 17.3146 6.89563 17.6244C7.68164 17.9466 8.51473 18.1095 9.37499 18.1095C10.2353 18.1095 11.0683 17.9466 11.8544 17.6262C12.6113 17.3182 13.2997 16.869 13.881 16.3037C14.4677 15.7371 14.9278 15.075 15.2483 14.3403C15.5811 13.5793 15.7517 12.7601 15.75 11.9325C15.75 11.0685 15.5689 10.2293 15.2085 9.43796ZM13.0153 15.445C12.0427 16.3869 10.7514 16.9039 9.37499 16.9039C7.99857 16.9039 6.70728 16.3869 5.73473 15.445C4.7658 14.5049 4.23153 13.2585 4.23153 11.9325C4.23153 11.1624 4.40902 10.4241 4.75856 9.73716C5.09904 9.06617 5.60614 8.46599 6.22191 8.00391C6.61462 7.71036 6.97081 7.37286 7.2832 6.99831C7.73597 6.45833 8.09094 5.85638 8.33725 5.21018C8.43828 4.94362 8.51169 4.66782 8.55639 4.38693C8.99286 4.77996 9.35869 5.25444 9.66476 5.81035C10.2697 6.91864 10.5486 7.90477 10.4942 8.74395C10.4813 8.9416 10.5143 9.13954 10.5908 9.32292C10.6674 9.50629 10.7854 9.67032 10.9361 9.80267C11.0668 9.918 11.2195 10.0068 11.3855 10.064C11.5516 10.1211 11.7275 10.1454 11.9033 10.1355C12.26 10.1178 12.5878 9.96378 12.8269 9.70352C13.0678 9.43973 13.2761 9.17062 13.4499 8.89621C13.7035 9.21312 13.9154 9.55835 14.0838 9.93014C14.3718 10.564 14.5185 11.2385 14.5185 11.9325C14.5185 13.2585 13.9842 14.5067 13.0153 15.445Z" fill="white"/>
</g>
<defs>
<clipPath id="clip0">
<rect y="0.769531" width="18" height="18" fill="white"/>
</clipPath>
</defs>
</svg>
