<svg width="17" height="17" viewBox="0 0 17 17" fill="none" xmlns="http://www.w3.org/2000/svg">
<path d="M14.0121 6.68916L13.72 7.05941C14.9363 8.019 15.6338 9.45697 15.6338 11.0046C15.6338 13.7747 13.3802 16.0284 10.61 16.0284C7.91742 16.0284 5.7139 13.9249 5.59349 11.2395L5.59327 11.2353C5.58858 11.1605 5.58621 11.0829 5.58621 11.0046C5.58621 10.5967 5.63527 10.1938 5.73224 9.80578C6.17789 7.98219 7.58758 6.5725 9.41242 6.12653C9.79926 6.02981 10.2022 5.98081 10.61 5.98081C10.6149 5.98081 10.6196 5.981 10.6245 5.98103C10.6245 5.98587 10.6247 5.99059 10.6247 5.99547H10.9635C11.7695 6.05131 12.5547 6.30209 13.2415 6.72497L13.4887 6.32341C12.7595 5.87441 11.929 5.60262 11.0748 5.53103C10.9678 4.23956 10.4089 3.03144 9.48689 2.10947C8.44911 1.07153 7.06899 0.5 5.6009 0.5C4.1328 0.5 2.75268 1.07156 1.71487 2.10941C0.67703 3.14719 0.105469 4.52728 0.105469 5.99541C0.105469 7.49075 0.72278 8.93122 1.79993 9.95866L2.01075 10.1695L2.02037 10.1598C2.89215 10.9131 3.98424 11.3729 5.13624 11.4716C5.24702 12.8055 5.83602 14.0426 6.80936 14.9746C7.83658 15.9583 9.18636 16.5 10.61 16.5C13.6402 16.5 16.1055 14.0347 16.1055 11.0046C16.1054 9.31166 15.3424 7.73875 14.0121 6.68916ZM10.5995 5.50931C10.2524 5.50997 9.90845 5.54353 9.57379 5.60834C9.49311 4.76541 9.14851 3.97706 8.58445 3.34528L9.31626 2.61344C10.0482 3.41694 10.4969 4.42981 10.5995 5.50931ZM5.83671 0.977156C7.01199 1.03106 8.11386 1.48741 8.9828 2.28003L8.25098 3.01181C7.57927 2.41169 6.73655 2.06194 5.83671 2.00981V0.977156V0.977156ZM5.36508 0.977156V2.00984C4.46499 2.06194 3.62209 2.41184 2.95074 3.01178L2.219 2.28003C3.08793 1.48741 4.18984 1.03106 5.36508 0.977156ZM1.88553 2.6135L2.61731 3.34528C2.01718 4.01703 1.66743 4.85975 1.61531 5.75959H0.582624C0.636561 4.58431 1.09287 3.48247 1.88553 2.6135ZM2.00978 9.50353C1.15162 8.62894 0.641155 7.45816 0.582937 6.23119H1.61547C1.67228 7.18556 2.072 8.09144 2.73762 8.77563L2.00978 9.50353ZM5.11471 10.9962C4.09627 10.8962 3.13206 10.4873 2.35487 9.82534L3.08596 9.09428C3.58384 9.50016 4.17277 9.78012 4.80274 9.90759L4.8963 9.44534C4.27649 9.31991 3.70131 9.02722 3.23224 8.59831C2.49987 7.93384 2.07984 6.98512 2.07984 5.99534C2.07984 5.05453 2.44659 4.171 3.11309 3.50694C3.77656 2.84103 4.66009 2.47428 5.6009 2.47428C6.54171 2.47428 7.42524 2.84103 8.08933 3.50756C8.68711 4.10306 9.04536 4.88234 9.10992 5.71866C8.21161 5.97278 7.39052 6.45447 6.72524 7.11972C6.01349 7.83147 5.51171 8.72153 5.27443 9.69253C5.16899 10.1141 5.11537 10.5527 5.11471 10.9962Z" fill="black"/>
<path d="M10.1089 12.7427H10.3739V13.2583H10.8455V12.7427H11.1106C11.5169 12.7427 11.8474 12.4122 11.8474 12.006V11.5051C11.8474 11.0988 11.5169 10.7683 11.1106 10.7683H10.1088C9.96263 10.7683 9.84369 10.6494 9.84369 10.5032V10.0023C9.84369 9.85612 9.96263 9.73719 10.1088 9.73719H11.1106C11.2568 9.73719 11.3758 9.85612 11.3758 10.0023V10.5032H11.8473V10.0023C11.8473 9.59606 11.5168 9.26556 11.1106 9.26556H10.8455V8.75H10.3739V9.26556H10.1088C9.70257 9.26556 9.37207 9.59606 9.37207 10.0023V10.5032C9.37207 10.9095 9.70257 11.24 10.1088 11.24H11.1106C11.2568 11.24 11.3758 11.3589 11.3758 11.5051V12.006C11.3758 12.1521 11.2568 12.2711 11.1106 12.2711H10.1088C9.96263 12.2711 9.84369 12.1521 9.84369 12.006V11.5051H9.3721V12.006C9.3721 12.4122 9.7026 12.7427 10.1089 12.7427Z" fill="black"/>
<path d="M6.36621 11.0049C6.36621 13.3446 8.26968 15.248 10.6093 15.248C12.949 15.248 14.8524 13.3445 14.8524 11.0049C14.8524 8.66522 12.949 6.76172 10.6093 6.76172C8.26968 6.76172 6.36621 8.66522 6.36621 11.0049ZM14.3809 11.0049C14.3809 13.0845 12.6889 14.7764 10.6094 14.7764C8.52977 14.7764 6.83787 13.0845 6.83787 11.0049C6.83787 8.92528 8.52977 7.23334 10.6094 7.23334C12.6889 7.23334 14.3809 8.92528 14.3809 11.0049Z" fill="black"/>
<path d="M13.3652 10.7695H12.8643V11.2411H13.3652V10.7695Z" fill="black"/>
<path d="M8.35543 10.7695H7.85449V11.2411H8.35543V10.7695Z" fill="black"/>
<path d="M3.11133 5.99383H3.58292C3.58292 4.88096 4.48833 3.97553 5.60123 3.97553V3.50391C4.22829 3.50391 3.11133 4.6209 3.11133 5.99383Z" fill="black"/>
<path d="M3.58292 6.49609H3.11133V6.997H3.58292V6.49609Z" fill="black"/>
</svg>
