<svg width="17" height="17" viewBox="0 0 17 17" fill="none" xmlns="http://www.w3.org/2000/svg">
<g clip-path="url(#clip0)">
<path d="M8.82274 5.07031L8.82129 8.56838C8.82129 8.7012 8.87401 8.82815 8.96778 8.92189L11.4702 11.4238L12.1772 10.7168L9.82127 8.36133L9.82272 5.07031H8.82274Z" fill="black"/>
<path d="M9.82325 1.07031C6.30379 1.07031 3.391 3.68408 2.90316 7.07032H0.823242L3.32324 9.57032L5.82324 7.07032H3.91356C4.39191 4.23719 6.85603 2.07032 9.82325 2.07032C13.1318 2.07032 15.8233 4.76172 15.8233 8.07033C15.8233 11.3789 13.1319 14.0703 9.82325 14.0703C7.96339 14.0703 6.23879 13.2285 5.0918 11.7608L4.30371 12.376C5.64159 14.0879 7.65331 15.0703 9.82325 15.0703C13.6831 15.0703 16.8232 11.9297 16.8232 8.07033C16.8232 4.21097 13.6831 1.07034 9.82325 1.07031Z" fill="black"/>
</g>
<defs>
<clipPath id="clip0">
<rect width="16" height="16" fill="white" transform="translate(0.823242 0.0703125)"/>
</clipPath>
</defs>
</svg>
