<svg width="39" height="48" viewBox="0 0 39 48" fill="none" xmlns="http://www.w3.org/2000/svg">
<path d="M19.4992 35.7349C19.1013 35.7349 18.7783 35.412 18.7783 35.014L18.7798 18.7526C18.7798 18.3547 19.1027 18.0317 19.5006 18.0317C19.8986 18.0317 20.2215 18.3547 20.2215 18.7526L20.2201 35.014C20.2201 35.412 19.8971 35.7349 19.4992 35.7349Z" fill="black" fill-opacity="0.5"/>
<path d="M25.7176 25.6902C25.533 25.6902 25.3485 25.6195 25.2072 25.4797L19.4993 19.7718L13.7914 25.4797C13.5103 25.7608 13.0533 25.7608 12.7721 25.4797C12.491 25.1985 12.491 24.7415 12.7721 24.4603L18.9904 18.2421C19.2715 17.961 19.7286 17.961 20.0097 18.2421L26.2279 24.4603C26.5091 24.7415 26.5091 25.1985 26.2279 25.4797C26.0866 25.6195 25.9021 25.6902 25.7176 25.6902Z" fill="black" fill-opacity="0.5"/>
<path d="M35.2605 48H3.73962C1.75289 48 0.135254 46.3838 0.135254 44.3956V3.60436C0.135254 1.6162 1.75289 0 3.73962 0H26.6302C27.0281 0 27.3511 0.322951 27.3511 0.720872C27.3511 1.11879 27.0281 1.44174 26.6302 1.44174H3.73962C2.54729 1.44174 1.577 2.41204 1.577 3.60436V44.3956C1.577 45.588 2.54729 46.5583 3.73962 46.5583H35.2605C36.4528 46.5583 37.4231 45.588 37.4231 44.3956V12.5489C37.4231 12.151 37.746 11.8281 38.144 11.8281C38.5419 11.8281 38.8648 12.151 38.8648 12.5489V44.3971C38.8648 46.3838 37.2486 48 35.2605 48Z" fill="black" fill-opacity="0.5"/>
<path d="M38.1441 13.2699H26.6303C26.2324 13.2699 25.9094 12.947 25.9094 12.5491V1.03386C25.9094 0.635939 26.2324 0.312988 26.6303 0.312988C27.0282 0.312988 27.3512 0.635939 27.3512 1.03386V11.8268H38.1441C38.542 11.8268 38.8649 12.1497 38.8649 12.5476C38.8649 12.9456 38.5434 13.2699 38.1441 13.2699Z" fill="black" fill-opacity="0.5"/>
<path d="M38.144 13.2694C37.9566 13.2694 37.7692 13.1958 37.6279 13.0517L26.1141 1.22504C25.8373 0.941019 25.8431 0.482545 26.1285 0.20573C26.4126 -0.072527 26.8696 -0.0653183 27.1478 0.220147L38.6616 12.0468C38.9384 12.3308 38.9327 12.7893 38.6472 13.0661C38.5074 13.2016 38.3257 13.2694 38.144 13.2694Z" fill="black" fill-opacity="0.5"/>
</svg>
