<svg width="17" height="17" viewBox="0 0 17 17" fill="none" xmlns="http://www.w3.org/2000/svg">
<path d="M16.5925 13.6257L14.8042 11.0938V6.5918C14.8042 3.49011 12.0673 0.966797 8.70314 0.966797C5.33899 0.966797 2.60208 3.49011 2.60208 6.5918V11.0938L0.813808 13.6257C0.520507 14.0409 0.844528 14.5918 1.38187 14.5918H5.5204C5.83316 15.947 7.1413 16.9668 8.70314 16.9668C10.265 16.9668 11.5731 15.947 11.8859 14.5918H16.0244C16.5619 14.5918 16.8856 14.0408 16.5925 13.6257ZM3.95789 6.5918C3.95789 4.17944 6.08661 2.2168 8.70314 2.2168C11.3198 2.2168 13.4485 4.17944 13.4485 6.5918V10.6543H3.95789V6.5918ZM8.70314 15.7168C7.89527 15.7168 7.20353 15.249 6.9301 14.5918H10.4762C10.2028 15.249 9.51101 15.7168 8.70314 15.7168ZM2.63214 13.3418L3.64751 11.9043H13.7588L14.774 13.3418C13.2792 13.3418 3.83421 13.3418 2.63214 13.3418Z" fill="black"/>
</svg>
