<svg width="17" height="17" viewBox="0 0 17 17" fill="none" xmlns="http://www.w3.org/2000/svg">
<g clip-path="url(#clip0)">
<path d="M11.1669 0.5C8.18502 0.5 5.75909 2.92594 5.75909 5.90778C5.75909 6.57069 5.87687 7.21487 6.10943 7.82662L0.93868 12.9978C0.864773 13.0717 0.823242 13.1719 0.823242 13.2764V16.1059C0.823242 16.3236 0.99968 16.5 1.21734 16.5H3.54909C3.65349 16.5 3.75362 16.4586 3.82752 16.3848L4.6133 15.6002C4.68737 15.5263 4.72896 15.4259 4.72896 15.3213V14.3564H5.69262C5.91027 14.3564 6.08671 14.18 6.08671 13.9623V13.5761H6.47299C6.69062 13.5761 6.86709 13.3997 6.86709 13.182V12.334H7.71509C7.81959 12.334 7.91981 12.2925 7.99374 12.2186L9.24752 10.9648C9.85937 11.1976 10.5036 11.3155 11.1668 11.3155C14.1486 11.3155 16.5746 8.88956 16.5746 5.90772C16.5746 2.92594 14.1487 0.5 11.1669 0.5ZM11.1669 10.5273C10.5218 10.5273 9.89793 10.397 9.31252 10.14C9.16115 10.0736 8.99068 10.1102 8.87906 10.2189C8.87784 10.2201 8.87665 10.221 8.87546 10.2222L7.5519 11.5458H6.47305C6.2554 11.5458 6.07896 11.7222 6.07896 11.9399V12.7879H5.69268C5.47505 12.7879 5.29859 12.9643 5.29859 13.182V13.5682H4.3349C4.11727 13.5682 3.9408 13.7447 3.9408 13.9623V15.1579L3.38602 15.7118H1.61149V15.1549L6.4284 10.338C6.56693 10.1995 6.56693 9.97491 6.4284 9.83641C6.28987 9.69791 6.06537 9.69784 5.92674 9.83641L1.61149 14.1517V13.4397L6.85199 8.19881C6.85318 8.19763 6.85409 8.19653 6.85518 8.19537C6.96399 8.08384 7.00068 7.91338 6.93424 7.76188C6.67749 7.1765 6.54737 6.55266 6.54737 5.90781C6.54737 3.36056 8.61971 1.28822 11.167 1.28822C13.7142 1.28822 15.7865 3.36053 15.7865 5.90781C15.7864 8.455 13.7141 10.5273 11.1669 10.5273Z" fill="black"/>
<path d="M12.8131 2.78516C11.9991 2.78516 11.3369 3.44734 11.3369 4.26131C11.3369 5.07528 11.9991 5.73747 12.8131 5.73747C13.627 5.73747 14.2892 5.07528 14.2892 4.26131C14.2892 3.44734 13.6271 2.78516 12.8131 2.78516ZM12.8131 4.94928C12.4337 4.94928 12.1251 4.64066 12.1251 4.26131C12.1251 3.88197 12.4337 3.57334 12.8131 3.57334C13.1924 3.57334 13.501 3.88197 13.501 4.26131C13.501 4.64066 13.1924 4.94928 12.8131 4.94928Z" fill="black"/>
</g>
<defs>
<clipPath id="clip0">
<rect width="16" height="16" fill="white" transform="translate(0.699219 0.5)"/>
</clipPath>
</defs>
</svg>
