<svg width="97" height="34" viewBox="0 0 97 34" fill="none" xmlns="http://www.w3.org/2000/svg">
<rect x="0.0136719" y="0.611938" width="90" height="25" rx="3" fill="#FE9700"/>
<path d="M96.442 30.5508L92.4615 26.5706L95.3013 24.9304C95.5232 24.8023 95.6523 24.5587 95.6339 24.3032C95.6154 24.0475 95.4526 23.825 95.2146 23.7301L82.5515 18.6792C82.3032 18.5801 82.0198 18.6385 81.8307 18.8274C81.6417 19.0165 81.5833 19.2999 81.6824 19.5481L86.7329 32.2116C86.8279 32.4496 87.0504 32.6125 87.3061 32.6309C87.5617 32.6495 87.8054 32.5203 87.9335 32.2984L89.5736 29.4589L93.5538 33.4391C93.6792 33.5646 93.8495 33.6351 94.0268 33.6351C94.2042 33.6351 94.3744 33.5646 94.4998 33.4391L96.4421 31.4967C96.7032 31.2355 96.7032 30.8121 96.442 30.5508Z" fill="white"/>
<path d="M79.5735 15.6251C79.3123 15.3641 78.8889 15.364 78.6275 15.6251C78.3663 15.8863 78.3663 16.3098 78.6275 16.571L80.1138 18.0572C80.2444 18.1877 80.4155 18.2531 80.5867 18.2531C80.7579 18.2531 80.9291 18.1877 81.0596 18.0572C81.3209 17.7959 81.3209 17.3725 81.0596 17.1113L79.5735 15.6251Z" fill="white"/>
<path d="M80.0774 20.2489C80.0774 19.8796 79.778 19.5801 79.4085 19.5801H77.3066C76.9372 19.5801 76.6377 19.8795 76.6377 20.2489C76.6377 20.6183 76.9372 20.9178 77.3066 20.9178H79.4085C79.778 20.9177 80.0774 20.6183 80.0774 20.2489Z" fill="white"/>
<path d="M79.8064 22.3131L78.3199 23.7994C78.0587 24.0606 78.0587 24.4841 78.3199 24.7452C78.4505 24.8758 78.6217 24.9411 78.7929 24.9411C78.964 24.9411 79.1353 24.8758 79.2658 24.7452L80.7522 23.259C81.0135 22.9978 81.0135 22.5743 80.7522 22.3131C80.4911 22.0521 80.0677 22.052 79.8064 22.3131Z" fill="white"/>
<path d="M83.2519 17.0747C83.6213 17.0747 83.9208 16.7752 83.9208 16.4058V14.3039C83.9208 13.9345 83.6213 13.6351 83.2519 13.6351C82.8826 13.6351 82.583 13.9345 82.583 14.3039V16.4058C82.583 16.7752 82.8825 17.0747 83.2519 17.0747Z" fill="white"/>
<path d="M85.788 17.9452C85.9593 17.9452 86.1304 17.8799 86.261 17.7493L87.7472 16.2632C88.0084 16.002 88.0084 15.5785 87.7472 15.3173C87.486 15.0562 87.0624 15.0562 86.8013 15.3173L85.3151 16.8035C85.0538 17.0647 85.0538 17.4882 85.3151 17.7493C85.4457 17.8799 85.6168 17.9452 85.788 17.9452Z" fill="white"/>
</svg>
