<svg width="17" height="16" viewBox="0 0 17 16" fill="none" xmlns="http://www.w3.org/2000/svg">
<g clip-path="url(#clip0)">
<path d="M16.1451 6.13447C16.0925 5.97355 15.9546 5.85862 15.7871 5.83235L10.7955 5.12302L8.54934 0.607622C8.47381 0.456562 8.31946 0.361328 8.15198 0.361328C7.9845 0.361328 7.83016 0.456562 7.75463 0.610906L5.53798 5.13944L0.546415 5.8816C0.378935 5.90788 0.24101 6.02281 0.188467 6.18373C0.135924 6.34464 0.181899 6.52197 0.303404 6.63691L3.92557 10.1474L3.08817 15.1193C3.05862 15.2868 3.12758 15.4542 3.2655 15.5528C3.34103 15.6086 3.43298 15.6381 3.52493 15.6381C3.59718 15.6381 3.66614 15.6217 3.73182 15.5856L8.18811 13.2245L12.6575 15.5593C12.7232 15.5922 12.7922 15.6086 12.8611 15.6086C13.1041 15.6086 13.3045 15.4083 13.3045 15.1653C13.3045 15.1291 13.3012 15.0963 13.2913 15.0635L12.4277 10.1212L16.0268 6.59093C16.1549 6.47271 16.1976 6.29538 16.1451 6.13447ZM11.6461 9.65155C11.541 9.75335 11.495 9.90113 11.5213 10.0456L12.2733 14.3574L8.39171 12.3312C8.26364 12.2623 8.10929 12.2656 7.97794 12.3312L4.10947 14.3804L4.83522 10.062C4.85821 9.91755 4.81223 9.77305 4.70715 9.67125L1.56772 6.62377L5.89921 5.98012C6.0437 5.95713 6.16849 5.86847 6.23089 5.73711L8.15527 1.80625L10.1059 5.72726C10.1716 5.85862 10.2964 5.94728 10.4409 5.97027L14.7757 6.58765L11.6461 9.65155Z" fill="black"/>
</g>
<defs>
<clipPath id="clip0">
<rect width="16" height="16" fill="white" transform="translate(0.166992)"/>
</clipPath>
</defs>
</svg>
