<svg width="17" height="17" viewBox="0 0 17 17" fill="none" xmlns="http://www.w3.org/2000/svg">
<g clip-path="url(#clip0)">
<path d="M15.8228 7.07574H14.3259C14.0853 7.07574 13.8871 6.94329 13.7949 6.72107C13.7028 6.49885 13.7496 6.26477 13.9194 6.0947L14.9777 5.03663C15.1333 4.88107 15.2189 4.67396 15.2189 4.45411C15.2189 4.23396 15.1333 4.02715 14.9777 3.87129L13.6287 2.52226C13.3176 2.21115 12.7751 2.21055 12.4634 2.52226L11.4053 3.58033C11.2352 3.75011 11.0006 3.79752 10.7789 3.70507C10.5567 3.61292 10.4243 3.4147 10.4243 3.17411V1.67722C10.4243 1.223 10.0548 0.853516 9.60056 0.853516H7.69241C7.23819 0.853516 6.86871 1.223 6.86871 1.67722V3.17411C6.86871 3.4147 6.73626 3.61292 6.51404 3.70507C6.29241 3.79781 6.05774 3.75011 5.88767 3.58033L4.8296 2.52226C4.51789 2.21055 3.97537 2.21115 3.66426 2.52226L2.31523 3.87129C2.15967 4.02685 2.07404 4.23396 2.07404 4.45411C2.07404 4.67396 2.15967 4.88077 2.31523 5.03663L3.3736 6.0947C3.54337 6.26477 3.58989 6.49885 3.49804 6.72107C3.40619 6.94329 3.20767 7.07574 2.96708 7.07574H1.47019C1.01597 7.07574 0.646484 7.44522 0.646484 7.89944V9.80729C0.646484 10.2618 1.01597 10.6313 1.47019 10.6313H2.96708C3.20767 10.6313 3.40589 10.7637 3.49804 10.986C3.59019 11.2082 3.54337 11.4423 3.3736 11.6123L2.31523 12.6704C2.15967 12.826 2.07404 13.0331 2.07404 13.2529C2.07404 13.4731 2.15967 13.6799 2.31523 13.8357L3.66426 15.1848C3.97567 15.4962 4.51789 15.4968 4.8296 15.1848L5.88767 14.1264C6.05774 13.9566 6.29152 13.9098 6.51404 14.002C6.73626 14.0941 6.86871 14.2923 6.86871 14.5329V16.0298C6.86871 16.484 7.23819 16.8535 7.69241 16.8535H9.60026C10.0545 16.8535 10.424 16.484 10.424 16.0298V14.5329C10.424 14.2923 10.5564 14.0941 10.7786 14.002C11.0012 13.9095 11.2349 13.9566 11.405 14.1264L12.4631 15.1848C12.7748 15.4965 13.3173 15.4959 13.6284 15.1848L14.9774 13.8357C15.133 13.6802 15.2186 13.4731 15.2186 13.2529C15.2186 13.0331 15.133 12.8263 14.9774 12.6704L13.9191 11.6123C13.7493 11.4423 13.7028 11.2082 13.7946 10.986C13.8865 10.7637 14.0853 10.6313 14.3259 10.6313H15.8228C16.277 10.6313 16.6465 10.2618 16.6465 9.80759V7.89944C16.6465 7.44522 16.277 7.07574 15.8228 7.07574ZM16.0539 9.80759C16.0539 9.935 15.9502 10.0387 15.8228 10.0387H14.3259C13.8447 10.0387 13.4314 10.3148 13.2474 10.7593C13.0631 11.2037 13.16 11.6914 13.5004 12.0316L14.5588 13.0897C14.6492 13.18 14.6492 13.3267 14.5588 13.4168L13.2097 14.7658C13.1197 14.8559 12.973 14.8565 12.8826 14.7658L11.8246 13.7074C11.4841 13.367 10.9967 13.2707 10.5523 13.4544C10.1078 13.6384 9.83167 14.0517 9.83167 14.5329V16.0298C9.83167 16.1572 9.72797 16.2609 9.60056 16.2609H7.69241C7.565 16.2609 7.4613 16.1572 7.4613 16.0298V14.5329C7.4613 14.0517 7.18515 13.6384 6.74071 13.4544C6.59167 13.3925 6.43819 13.3623 6.28648 13.3623C5.98604 13.3623 5.69478 13.4808 5.46841 13.7071L4.41034 14.7655C4.31967 14.8562 4.173 14.8556 4.08323 14.7655L2.73419 13.4165C2.64382 13.3261 2.64382 13.1794 2.73419 13.0894L3.79256 12.0313C4.13271 11.6911 4.22989 11.2034 4.0456 10.759C3.8616 10.3148 3.44826 10.0387 2.96708 10.0387H1.47019C1.34278 10.0387 1.23908 9.935 1.23908 9.80759V7.89944C1.23908 7.77203 1.34278 7.66833 1.47019 7.66833H2.96708C3.44826 7.66833 3.8616 7.39218 4.0456 6.94774C4.22989 6.50329 4.133 6.01559 3.79256 5.67544L2.73419 4.61737C2.64382 4.527 2.64382 4.38033 2.73419 4.29026L4.08323 2.94122C4.1733 2.85085 4.31997 2.85085 4.41034 2.94122L5.46841 3.99929C5.80826 4.33915 6.29567 4.43663 6.74071 4.25233C7.18515 4.06863 7.4613 3.65529 7.4613 3.17411V1.67722C7.4613 1.54981 7.565 1.44611 7.69241 1.44611H9.60026C9.72797 1.44611 9.83167 1.54981 9.83167 1.67722V3.17411C9.83167 3.65529 10.1078 4.06863 10.5523 4.25263C10.9973 4.43692 11.4844 4.33974 11.8246 3.99959L12.8826 2.94152C12.9733 2.85115 13.12 2.85115 13.2097 2.94152L14.5588 4.29055C14.6492 4.38092 14.6492 4.52759 14.5588 4.61766L13.5004 5.67574C13.1603 6.01589 13.0631 6.50359 13.2474 6.94803C13.4314 7.39248 13.8447 7.66863 14.3259 7.66863H15.8228C15.9502 7.66833 16.0539 7.77203 16.0539 7.89944V9.80759Z" fill="black"/>
<path d="M8.64616 6.1875C7.17564 6.1875 5.97949 7.38365 5.97949 8.85417C5.97949 10.3247 7.17564 11.5208 8.64616 11.5208C10.1167 11.5208 11.3128 10.3247 11.3128 8.85417C11.3128 7.38365 10.1167 6.1875 8.64616 6.1875ZM8.64616 10.9282C7.50275 10.9282 6.57208 9.99757 6.57208 8.85417C6.57208 7.71076 7.50275 6.78009 8.64616 6.78009C9.78957 6.78009 10.7202 7.71076 10.7202 8.85417C10.7202 9.99757 9.78957 10.9282 8.64616 10.9282Z" fill="black"/>
</g>
<defs>
<clipPath id="clip0">
<rect width="16" height="16" fill="white" transform="translate(0.646484 0.853516)"/>
</clipPath>
</defs>
</svg>
