<svg width="17" height="17" viewBox="0 0 17 17" fill="none" xmlns="http://www.w3.org/2000/svg">
<g clip-path="url(#clip0)">
<path d="M14.5723 12.4512C14.7448 12.4512 14.8848 12.3112 14.8848 12.1387C14.8848 11.9662 14.7448 11.8262 14.5723 11.8262C14.3998 11.8262 14.2598 11.9662 14.2598 12.1387C14.2598 12.3112 14.3998 12.4512 14.5723 12.4512Z" fill="black"/>
<path d="M1.07227 16.3887H15.1973C15.7142 16.3887 16.1348 15.9681 16.1348 15.4512V3.82617C16.1348 3.65356 15.9949 3.51367 15.8223 3.51367H13.6348C13.6348 1.79053 12.2329 0.388672 10.5098 0.388672C8.78296 0.388672 7.38477 1.78552 7.38477 3.51367H5.00977C4.83716 3.51367 4.69727 3.65356 4.69727 3.82617V7.45117H0.447266C0.274658 7.45117 0.134766 7.59106 0.134766 7.76367V15.4512C0.134766 15.9681 0.555298 16.3887 1.07227 16.3887ZM0.759766 15.4512V14.3262H8.00977V15.4512C8.00977 15.6235 7.86963 15.7637 7.69727 15.7637H1.07227C0.899902 15.7637 0.759766 15.6235 0.759766 15.4512ZM15.1973 15.7637H8.58105C8.61572 15.6659 8.63477 15.5608 8.63477 15.4512V14.3262H15.5098V15.4512C15.5098 15.6235 15.3696 15.7637 15.1973 15.7637ZM10.5098 1.01367C11.8883 1.01367 13.0098 2.13513 13.0098 3.51367H8.00977C8.00977 2.13208 9.12732 1.01367 10.5098 1.01367ZM5.32227 4.13867H7.38477V5.57617H7.07227C6.89966 5.57617 6.75977 5.71606 6.75977 5.88867C6.75977 6.06128 6.89966 6.20117 7.07227 6.20117H8.32227C8.49487 6.20117 8.63477 6.06128 8.63477 5.88867C8.63477 5.71606 8.49487 5.57617 8.32227 5.57617H8.00977V4.13867H13.0098V5.57617H12.6973C12.5247 5.57617 12.3848 5.71606 12.3848 5.88867C12.3848 6.06128 12.5247 6.20117 12.6973 6.20117H13.9473C14.1199 6.20117 14.2598 6.06128 14.2598 5.88867C14.2598 5.71606 14.1199 5.57617 13.9473 5.57617H13.6348V4.13867H15.5098V13.7012H8.63477V7.76367C8.63477 7.59106 8.49487 7.45117 8.32227 7.45117H5.32227V4.13867ZM8.00977 8.07617V13.7012H0.759766V8.07617H8.00977Z" fill="black"/>
<path d="M2.50977 9.95117V10.5762C2.50977 11.6121 3.34888 12.4512 4.38477 12.4512C5.4187 12.4512 6.25977 11.6101 6.25977 10.5762V9.95117C6.43237 9.95117 6.57227 9.81128 6.57227 9.63867C6.57227 9.46606 6.43237 9.32617 6.25977 9.32617H5.63477C5.46216 9.32617 5.32227 9.46606 5.32227 9.63867C5.32227 9.81128 5.46216 9.95117 5.63477 9.95117V10.5762C5.63477 11.2654 5.07397 11.8262 4.38477 11.8262C3.69434 11.8262 3.13477 11.2666 3.13477 10.5762V9.95117C3.30737 9.95117 3.44727 9.81128 3.44727 9.63867C3.44727 9.46606 3.30737 9.32617 3.13477 9.32617H2.50977C2.33716 9.32617 2.19727 9.46606 2.19727 9.63867C2.19727 9.81128 2.33716 9.95117 2.50977 9.95117Z" fill="black"/>
<path d="M14.5723 11.2012C14.7449 11.2012 14.8848 11.0613 14.8848 10.8887V8.38867C14.8848 8.21606 14.7449 8.07617 14.5723 8.07617C14.3997 8.07617 14.2598 8.21606 14.2598 8.38867V10.8887C14.2598 11.0613 14.3997 11.2012 14.5723 11.2012Z" fill="black"/>
</g>
<defs>
<clipPath id="clip0">
<rect width="16" height="16" fill="white" transform="translate(0.134766 0.388672)"/>
</clipPath>
</defs>
</svg>
