<svg width="17" height="17" viewBox="0 0 17 17" fill="none" xmlns="http://www.w3.org/2000/svg">
<g clip-path="url(#clip0)">
<path d="M13.6367 5.5L12.9297 6.20703L15.0762 8.35351H7.99023V9.35352H15.0762L12.9297 11.5L13.6367 12.207L16.9902 8.85352L13.6367 5.5Z" fill="black"/>
<path d="M11.9902 15.8535H1.99025V1.85353H11.9902V2.85354H12.9902V1.35352C12.9902 1.07714 12.7666 0.853516 12.4902 0.853516H1.49024C1.21386 0.853516 0.990234 1.07714 0.990234 1.35352V16.3535C0.990234 16.6299 1.21386 16.8535 1.49024 16.8535H12.4902C12.7666 16.8535 12.9902 16.6299 12.9902 16.3535V14.8535H11.9902V15.8535Z" fill="black"/>
</g>
<defs>
<clipPath id="clip0">
<rect width="16" height="16" fill="white" transform="translate(0.990234 0.853516)"/>
</clipPath>
</defs>
</svg>
