<svg width="17" height="17" viewBox="0 0 17 17" fill="none" xmlns="http://www.w3.org/2000/svg">
<g clip-path="url(#clip0)">
<path d="M15.9777 7.34492H15.5871V4.70742C15.5871 4.08867 15.0996 3.60117 14.5121 3.60117H14.2184V1.83867C14.2184 1.21992 13.7621 0.732422 13.209 0.732422C13.209 0.732422 13.1777 0.732422 13.1434 0.732422L1.99961 3.59805C1.99648 3.59805 1.99023 3.60117 1.98711 3.60117C1.43711 3.64492 0.990234 4.1168 0.990234 4.70742V14.9387C0.990234 15.5574 1.47773 16.0449 2.06523 16.0449H14.5121C15.1309 16.0449 15.6184 15.5574 15.6184 14.9387V12.2324H15.9777C16.1746 12.2324 16.3027 12.1012 16.3027 11.9074V7.67305C16.3027 7.47617 16.1402 7.34492 15.9777 7.34492ZM13.2715 1.35117C13.434 1.38242 13.5965 1.5793 13.5965 1.83867V3.59805H4.60586L13.2715 1.35117ZM14.9684 14.9387C14.9684 15.198 14.7715 15.4262 14.5121 15.4262H2.06523C1.80586 15.4262 1.60898 15.198 1.60898 14.9387V4.70742C1.60898 4.44805 1.80586 4.21992 2.06523 4.21992H14.4777C14.7371 4.21992 14.934 4.44805 14.934 4.70742V7.34492H11.709C10.3402 7.34492 9.26523 8.41992 9.26523 9.78867C9.26523 11.1574 10.3715 12.2324 11.709 12.2324H14.9684V14.9387ZM15.6496 11.6137H11.709C10.7309 11.6137 9.91836 10.798 9.91836 9.82305C9.91836 8.84805 10.734 8.03242 11.709 8.03242H15.6496V11.6137Z" fill="black"/>
<path d="M11.3496 9.8543C11.3496 10.0512 11.5121 10.1793 11.6746 10.1793H11.9684C12.1309 10.1793 12.2934 10.048 12.2934 9.8543C12.2934 9.65742 12.1309 9.5293 11.9684 9.5293H11.6777C11.4809 9.5293 11.3496 9.66055 11.3496 9.8543Z" fill="black"/>
</g>
<defs>
<clipPath id="clip0">
<rect width="16" height="16" fill="white" transform="translate(0.646484 0.388672)"/>
</clipPath>
</defs>
</svg>
