<svg width="17" height="17" viewBox="0 0 17 17" fill="none" xmlns="http://www.w3.org/2000/svg">
<g clip-path="url(#clip0)">
<path d="M16.1082 5.85196C15.8747 3.28135 14.0552 1.41632 11.7781 1.41632C10.2611 1.41632 8.87212 2.23268 8.09054 3.54106C7.31603 2.21575 5.98395 1.41602 4.49125 1.41602C2.21451 1.41602 0.394708 3.28105 0.161464 5.85166C0.143001 5.9652 0.0673043 6.56277 0.297471 7.53729C0.629183 8.94291 1.39538 10.2214 2.51268 11.2338L8.08684 16.2923L13.7567 11.2341C14.874 10.2214 15.6402 8.94322 15.9719 7.53729C16.2021 6.56308 16.1264 5.96551 16.1082 5.85196ZM15.3728 7.39636C15.07 8.68013 14.3681 9.84973 13.345 10.7766L8.09054 15.4645L2.92624 10.7778C1.90126 9.84912 1.19968 8.67982 0.896583 7.39605C0.678724 6.47385 0.768268 5.95289 0.768575 5.94951L0.773191 5.91843C0.973203 3.6663 2.53668 2.03144 4.49125 2.03144C5.93349 2.03144 7.2031 2.91764 7.8056 4.34388L8.089 5.01561L8.3724 4.34388C8.96536 2.93949 10.302 2.03174 11.7784 2.03174C13.7327 2.03174 15.2965 3.66661 15.5005 5.94797C15.5011 5.95289 15.5907 6.47415 15.3728 7.39636Z" fill="black"/>
</g>
<defs>
<clipPath id="clip0">
<rect width="16" height="16" fill="white" transform="translate(0.134766 0.853516)"/>
</clipPath>
</defs>
</svg>
