<svg width="17" height="19" viewBox="0 0 17 19" fill="none" xmlns="http://www.w3.org/2000/svg">
<path d="M7.83001 8.47441C8.08832 8.2129 8.08832 7.78796 7.83001 7.52645C7.5717 7.26495 7.15195 7.26495 6.89364 7.52645L3.39031 11.0731C2.79297 11.6778 2.47009 12.4624 2.47009 13.3123C2.47009 14.1622 2.79297 14.9467 3.39031 15.5514C4.61728 16.7935 6.60304 16.7935 7.81387 15.5514L15.7246 7.5428C16.548 6.70925 17 5.59785 17 4.42108C17 3.2443 16.548 2.1329 15.7246 1.29935C14.0133 -0.433118 11.2526 -0.433118 9.54131 1.29935L1.64672 9.29161C0.581197 10.3703 0 11.7923 0 13.3123C0 14.8323 0.581197 16.2705 1.64672 17.3329C2.71225 18.4116 4.11681 19 5.61823 19C7.11966 19 8.54036 18.4116 9.58974 17.3329L13.0931 13.7862C13.3514 13.5247 13.3514 13.0998 13.0931 12.8383C12.8348 12.5768 12.415 12.5768 12.1567 12.8383L8.65337 16.3849C7.84615 17.2022 6.76448 17.6598 5.61823 17.6598C4.47199 17.6598 3.39031 17.2022 2.5831 16.3849C1.77588 15.5677 1.32384 14.4727 1.32384 13.3123C1.32384 12.1518 1.77588 11.0568 2.5831 10.2396L10.4777 2.24731C11.0589 1.65892 11.8177 1.34839 12.6249 1.34839C13.4321 1.34839 14.207 1.67527 14.7721 2.24731C15.3533 2.8357 15.66 3.60387 15.66 4.42108C15.66 5.23828 15.3371 6.0228 14.7721 6.59484L6.86135 14.6034C6.16714 15.3062 5.02089 15.3062 4.31054 14.6034C3.97151 14.2602 3.77778 13.8026 3.77778 13.3123C3.77778 12.8219 3.97151 12.3643 4.31054 12.0211L7.83001 8.47441Z" fill="#262626"/>
</svg>
