<svg width="32" height="30" viewBox="0 0 32 30" fill="none" xmlns="http://www.w3.org/2000/svg">
<path d="M2.8125 0H29.1875C30.7383 0 32 1.26169 32 2.8125V21.5625C32 23.1133 30.7383 24.375 29.1875 24.375H26.3125V29.0625C26.3125 29.4417 26.0841 29.7836 25.7337 29.9286C25.3834 30.0737 24.9802 29.9935 24.7121 29.7254L19.3617 24.375H2.8125C1.26169 24.375 0 23.1133 0 21.5625V2.8125C0 1.26169 1.26169 0 2.8125 0ZM1.875 21.5625C1.875 22.0794 2.29556 22.5 2.8125 22.5H19.75C19.9986 22.5 20.2371 22.5988 20.4129 22.7746L24.4375 26.7991V23.4375C24.4375 22.9198 24.8572 22.5 25.375 22.5H29.1875C29.7044 22.5 30.125 22.0794 30.125 21.5625V2.8125C30.125 2.29556 29.7044 1.875 29.1875 1.875H2.8125C2.29556 1.875 1.875 2.29556 1.875 2.8125V21.5625Z" fill="#D9D9D9"/>
<path d="M15.9998 4C20.5446 4 24.2422 7.8131 24.2422 12.5C24.2422 17.1869 20.5446 21 15.9998 21C11.4549 21 7.75734 17.1869 7.75734 12.5C7.75734 7.8131 11.4549 4 15.9998 4ZM15.9998 19.1111C19.5347 19.1111 22.4105 16.1454 22.4105 12.5C22.4105 8.85463 19.5347 5.88889 15.9998 5.88889C12.4649 5.88889 9.58899 8.85463 9.58899 12.5C9.58899 16.1454 12.4649 19.1111 15.9998 19.1111Z" fill="#D9D9D9"/>
<path d="M11.9698 14.2772C12.415 13.9076 13.1367 13.9076 13.5819 14.2772C14.2265 14.8124 15.0852 15.1072 15.9997 15.1072C16.9142 15.1072 17.7729 14.8125 18.4175 14.2772C18.8627 13.9077 19.5843 13.9076 20.0294 14.2772C20.4746 14.6468 20.4746 15.246 20.0294 15.6156C18.9542 16.5083 17.5231 17 15.9996 17C14.4762 17 13.045 16.5083 11.9698 15.6156C11.5247 15.246 11.5247 14.6468 11.9698 14.2772Z" fill="#D9D9D9"/>
<path d="M19.3936 11C18.858 11 18.4239 10.5523 18.4239 10C18.4239 9.44772 18.858 9 19.3936 9C19.9291 9 20.3633 9.44772 20.3633 10C20.3633 10.5523 19.9291 11 19.3936 11Z" fill="#D9D9D9"/>
<path d="M12.6065 11C12.0709 11 11.6368 10.5523 11.6368 10C11.6368 9.44772 12.0709 9 12.6065 9C13.142 9 13.5762 9.44772 13.5762 10C13.5762 10.5523 13.142 11 12.6065 11Z" fill="#D9D9D9"/>
</svg>
