<svg width="25" height="25" viewBox="0 0 25 25" fill="none" xmlns="http://www.w3.org/2000/svg">
<path d="M24.2155 18.3834C24.2155 17.7812 24.017 17.2248 23.6818 16.7756C24.4703 16.3052 25 15.4438 25 14.4607C25 13.4776 24.4703 12.6162 23.6818 12.1456C24.0168 11.6966 24.2155 11.14 24.2155 10.538C24.2155 9.05246 23.0072 7.84409 21.5218 7.84409H15.3944L17.9714 5.26691C19.1746 4.06368 19.1746 2.10586 17.9714 0.902254C16.7683 -0.300783 14.8106 -0.300783 13.6072 0.902445L6.66599 7.84409H0.732422C0.327873 7.84409 0 8.17198 0 8.57655V20.3448C0 20.7492 0.327873 21.0773 0.732422 21.0773H3.98006C4.33235 23.2974 6.25973 25 8.57735 25H20.7373C22.2225 25 23.431 23.7916 23.431 22.3061C23.431 21.7041 23.2325 21.1475 22.8971 20.6983C23.6858 20.2279 24.2155 19.3665 24.2155 18.3834ZM21.5218 19.6124H16.8148C16.1371 19.6124 15.5859 19.0609 15.5859 18.3834C15.5859 17.7059 16.1371 17.1546 16.8148 17.1546H21.5218C22.1994 17.1546 22.7507 17.7059 22.7507 18.3834C22.7507 19.0611 22.1994 19.6124 21.5218 19.6124ZM15.5859 14.4607C15.5859 13.783 16.1371 13.2317 16.8148 13.2317H22.3063C22.9839 13.2317 23.5352 13.783 23.5352 14.4607C23.5352 15.1382 22.9839 15.6897 22.3063 15.6897H16.8148C16.1371 15.6897 15.5859 15.1382 15.5859 14.4607ZM22.7507 10.538C22.7507 11.2155 22.1994 11.7668 21.5218 11.7668H16.8148C16.1371 11.7668 15.5859 11.2155 15.5859 10.538C15.5859 9.86027 16.1371 9.30902 16.8148 9.30902H21.5218C22.1994 9.30902 22.7507 9.86027 22.7507 10.538ZM5.3875 20.3448C5.3875 19.9403 5.05943 19.6124 4.65508 19.6124H1.46484V9.30902H6.96945C7.16381 9.30902 7.34997 9.23176 7.4873 9.09443L14.6429 1.9382C15.2752 1.30625 16.3036 1.30625 16.9355 1.9382C17.5674 2.57033 17.5676 3.59903 16.9355 4.23097L13.1081 8.05867C12.8986 8.26811 12.8361 8.58304 12.9494 8.85676C13.0627 9.13048 13.3297 9.30902 13.6261 9.30902H14.419C14.229 9.67773 14.1211 10.0955 14.1211 10.538V12.4992C14.1211 14.2585 12.69 15.6897 10.931 15.6897C10.5265 15.6897 10.1986 16.0176 10.1986 16.4221C10.1986 16.8265 10.5265 17.1546 10.931 17.1546C12.299 17.1546 13.5307 16.5614 14.3831 15.6187C14.5283 15.9224 14.7287 16.194 14.9712 16.4221C14.4484 16.9137 14.1211 17.6109 14.1211 18.3834C14.1211 19.3665 14.6507 20.2279 15.4394 20.6983C15.1043 21.1475 14.9055 21.7041 14.9055 22.3061C14.9055 22.7488 15.0135 23.1664 15.2035 23.5351H8.57735C6.81839 23.5351 5.3875 22.1039 5.3875 20.3448ZM20.7373 23.5351H17.5993C16.9218 23.5351 16.3706 22.9838 16.3706 22.3061C16.3706 21.6286 16.9218 21.0773 17.5993 21.0773H20.7373C21.4149 21.0773 21.9662 21.6286 21.9662 22.3061C21.9662 22.9838 21.4149 23.5351 20.7373 23.5351Z" fill="#D9D9D9"/>
</svg>
