<svg width="23" height="28" viewBox="0 0 23 28" fill="none" xmlns="http://www.w3.org/2000/svg">
<path fill-rule="evenodd" clip-rule="evenodd" d="M17.2976 25.8936C17.0245 26.7041 16.4498 27.3268 15.7416 27.6782C15.0616 28.0157 14.2581 28.1031 13.4798 27.8668L2.10211 24.0186C1.29333 23.745 0.671928 23.1691 0.321043 22.4594C-0.029201 21.7504 -0.109568 20.9077 0.163082 20.0989L4.65892 6.75562C4.87998 6.09958 5.3027 5.54737 5.8787 5.16541L11.2852 0.652648C11.634 0.346741 12.2164 0.117311 12.6711 0.0416886C13.1699 -0.0416241 13.6821 0.000673097 14.1601 0.161958L18.2247 1.5285C18.7665 1.712 19.2242 2.03094 19.5726 2.43468C19.9277 2.84655 20.1694 3.34706 20.2713 3.88197L21.8412 10.7568C21.9217 11.0541 21.9552 11.3562 21.946 11.6548C21.9364 11.9654 21.8814 12.2666 21.7857 12.5497L21.0699 14.6761C21.5359 14.8337 22.0349 14.9743 22.5719 15.0941C22.8663 15.1593 23.0522 15.4511 22.987 15.7461C22.9222 16.0411 22.6307 16.2276 22.3364 16.1625C21.7604 16.0339 21.2234 15.883 20.7209 15.7139L17.2976 25.8936ZM8.31613 19.122C8.31613 18.8716 8.18183 18.6828 7.94542 18.6027L5.10402 17.6444C4.81794 17.5484 4.50842 17.7031 4.41249 17.9898C4.31677 18.2763 4.47111 18.5866 4.75719 18.6826L7.5826 19.6355C7.64122 19.6571 7.70453 19.6689 7.7704 19.6689C8.07183 19.6689 8.31613 19.3933 8.31613 19.122ZM12.0083 19.9731C11.6696 19.8737 11.3084 20.1497 11.3084 20.4994C11.3084 20.744 11.4314 20.923 11.6589 21.0104C11.6711 21.0145 11.6828 21.019 11.6951 21.0228L14.4994 21.9685C14.7855 22.0644 15.0953 21.91 15.191 21.6233C15.2867 21.3366 15.1324 21.0262 14.8463 20.9303L12.0083 19.9731ZM9.7996 19.27C9.49839 19.27 9.25388 19.5148 9.25388 19.8169C9.25388 20.119 9.49839 20.3638 9.7996 20.3638C10.101 20.3638 10.3453 20.119 10.3453 19.8169C10.3453 19.5148 10.101 19.27 9.7996 19.27ZM13.6305 6.82205C13.6365 6.51999 13.8857 6.27988 14.1871 6.28586C14.4886 6.29163 14.7282 6.54135 14.7222 6.84342C14.7222 6.84961 14.6994 7.52829 14.9424 8.50412C14.959 8.49642 14.9752 8.48873 14.9914 8.48062C15.4123 8.27191 15.7533 7.90255 15.9151 7.42255C16.0776 6.94083 16.0296 6.43839 15.8209 6.01584C15.6124 5.59415 15.2441 5.25236 14.7651 5.09022C14.2841 4.92744 13.783 4.9755 13.3613 5.18485C12.9405 5.39356 12.5994 5.7627 12.4376 6.24292C12.2752 6.72486 12.3232 7.22708 12.5319 7.64963C12.7403 8.07132 13.1087 8.41311 13.5877 8.57525C13.6774 8.60559 13.7678 8.62844 13.8582 8.64446C13.606 7.57101 13.6303 6.82868 13.6305 6.82205ZM15.2794 9.5515C15.9064 11.1291 17.2357 13.0447 20.0499 14.2815L20.7497 12.1979C20.8124 12.0124 20.8484 11.8195 20.8544 11.6247C20.8599 11.4352 20.8375 11.2385 20.7838 11.04L19.2055 4.12657C19.1392 3.76021 18.99 3.43379 18.7463 3.15139C18.5214 2.89055 18.2266 2.68483 17.8778 2.5667L13.8135 1.20016C13.5039 1.0957 13.1714 1.06857 12.8465 1.12262C12.7659 1.13607 12.153 1.36657 11.9654 1.50799L6.49775 6.06775C6.12235 6.31171 5.83798 6.6785 5.69494 7.10318L1.19889 20.4464C1.0226 20.9698 1.07483 21.5156 1.30143 21.9745C1.52782 22.4327 1.92816 22.8042 2.44873 22.9804L13.7329 26.7985C14.2551 26.9752 14.7998 26.923 15.2579 26.6957C15.7147 26.4689 16.0855 26.0681 16.2613 25.5467L19.6988 15.3249C16.3869 13.9051 14.881 11.6145 14.197 9.76812C13.0838 9.77581 12.0511 9.14541 11.5515 8.13433C10.8339 6.68213 11.4287 4.92124 12.8774 4.20241C14.3266 3.48335 16.0838 4.07936 16.8011 5.53114C17.1334 6.20362 17.2095 7.00299 16.9512 7.77011C16.6922 8.53915 16.1471 9.12981 15.4751 9.46306C15.4112 9.49489 15.346 9.52437 15.2794 9.5515ZM6.75399 12.756L16.4965 16.042C16.7825 16.1379 17.0921 15.9832 17.1878 15.6966C17.2835 15.4099 17.1294 15.0997 16.8431 15.0038L7.10082 11.7178C6.81474 11.6219 6.50522 11.7764 6.4095 12.0631C6.31379 12.3497 6.46791 12.6601 6.75399 12.756ZM5.75548 15.7192L15.498 19.0051C15.784 19.1013 16.0936 18.9466 16.1893 18.6599C16.285 18.3732 16.1306 18.0631 15.8446 17.9671L6.10232 14.6812C5.81624 14.5851 5.50671 14.7397 5.41099 15.0264C5.31528 15.3131 5.4694 15.6233 5.75548 15.7192Z" fill="#D9D9D9"/>
</svg>
