<svg width="17" height="17" viewBox="0 0 17 17" fill="none" xmlns="http://www.w3.org/2000/svg">
<path d="M7.46962 6.87272C7.29615 6.57368 6.86825 6.57368 6.70634 6.87272L5.60767 8.75899C5.43419 9.05803 5.65393 9.41458 5.98931 9.41458H8.17509C8.51047 9.41458 8.7302 9.04653 8.55673 8.75899L7.46962 6.87272Z" fill="black"/>
<path d="M15.5655 6.87467L11.9457 3.95325C11.4021 3.51619 10.6735 3.27465 9.91025 3.27465C9.41296 3.27465 8.95036 3.37817 8.52246 3.5622C7.42379 3.05612 5.98973 3.18264 5.05297 3.93025L1.43315 6.85167C0.311347 7.7603 0.311347 9.2325 1.43315 10.1296L5.05297 13.0511C5.61966 13.4996 6.34825 13.7296 7.0884 13.7296C7.56257 13.7296 8.03673 13.6376 8.4762 13.4421C8.4762 13.4421 8.4762 13.4421 8.48776 13.4421H8.49933C8.92723 13.6376 9.41296 13.7411 9.92182 13.7411C10.6967 13.7411 11.4137 13.4996 11.9572 13.0626L15.5655 10.1526C16.6873 9.24401 16.6873 7.7718 15.5655 6.87467ZM7.0884 10.7392C6.48703 10.7392 5.98973 11.1993 5.94347 11.7974C4.63664 11.3373 3.68831 10.0951 3.67675 8.64592C3.64205 6.81716 5.13393 5.25294 6.96119 5.18393C8.9041 5.11492 10.5116 6.65614 10.5116 8.57691C10.5116 10.0491 9.5633 11.3143 8.2449 11.7744C8.18707 11.1993 7.68978 10.7392 7.0884 10.7392ZM15.0798 9.75008L11.46 12.6715C11.0436 13.005 10.5001 13.1891 9.91025 13.1891C9.63269 13.1891 9.35513 13.1431 9.1007 13.0626C9.11227 13.0511 9.11227 13.0511 9.12383 13.0395L9.1354 13.028L12.7437 10.1181C13.8655 9.2095 13.8655 7.73729 12.7437 6.84016L9.14696 3.94175C9.38983 3.87274 9.65582 3.82673 9.91025 3.82673C10.4654 3.82673 11.0321 3.99926 11.46 4.34431L15.0798 7.26572C15.9356 7.95582 15.9356 9.07148 15.0798 9.75008Z" fill="black"/>
</svg>
