<svg width="17" height="16" viewBox="0 0 17 16" fill="none" xmlns="http://www.w3.org/2000/svg">
<g clip-path="url(#clip0)">
<path d="M16.1066 6.63584L13.2772 3.81017C13.2186 3.75157 13.1391 3.71874 13.0564 3.71874H12.3797L13.184 2.91442C13.3061 2.79235 13.3061 2.59447 13.184 2.47253L10.8031 0.0915524C10.681 -0.0305175 10.4831 -0.0305175 10.3611 0.0915524L9.37241 1.08032L6.73057 3.72203C6.71654 3.72008 6.70237 3.71874 6.68785 3.71874H4.58471C4.5017 3.71874 4.42223 3.7517 4.36364 3.81041L1.53979 6.63596V6.63609C1.48328 6.6926 1.44824 6.77073 1.44824 6.85703V15.6874C1.44824 15.8601 1.58813 15.9999 1.76074 15.9999H15.8858C16.0584 15.9999 16.1983 15.8601 16.1983 15.6874V12.5223C16.1983 12.3497 16.0584 12.2098 15.8858 12.2098C15.7132 12.2098 15.5733 12.3497 15.5733 12.5223V15.3749H2.07324V7.16953H15.5733V10.0222C15.5733 10.1948 15.7132 10.3347 15.8858 10.3347C16.0584 10.3347 16.1983 10.1948 16.1983 10.0222V6.85703C16.1983 6.77061 16.1632 6.69248 16.1066 6.63584ZM9.8143 1.52221L10.5821 0.754392L12.5211 2.69347L10.083 5.13157H7.50975L6.85728 4.47923L9.8143 1.52221ZM2.51477 6.54453L4.7141 4.34374H6.13402C6.07799 4.46007 6.09788 4.60374 6.19432 4.70018L6.62584 5.13157H5.64061C5.468 5.13157 5.32811 5.27159 5.32811 5.44407C5.32811 5.61668 5.468 5.75657 5.64061 5.75657H12.0058C12.1784 5.75657 12.3183 5.61668 12.3183 5.44407C12.3183 5.27159 12.1784 5.13157 12.0058 5.13157H10.9668L11.7547 4.34374H12.927L15.1306 6.54453H2.51477Z" fill="black"/>
<path d="M6.07324 11.2715C6.07324 12.7878 7.30688 14.0216 8.82324 14.0216C10.3396 14.0216 11.5732 12.7878 11.5732 11.2715C11.5732 9.75525 10.3396 8.52148 8.82324 8.52148C7.30688 8.52148 6.07324 9.75513 6.07324 11.2715ZM10.9482 11.2715C10.9482 12.4432 9.995 13.3966 8.82324 13.3966C7.65161 13.3966 6.69824 12.4432 6.69824 11.2715C6.69824 10.0999 7.65161 9.14648 8.82324 9.14648C9.995 9.14648 10.9482 10.0997 10.9482 11.2715Z" fill="black"/>
<path d="M8.07547 10.9088C7.9534 10.7867 7.75552 10.7867 7.63345 10.9088C7.51151 11.0309 7.51151 11.2288 7.63345 11.3507L8.31912 12.0363C8.38016 12.0973 8.46011 12.1278 8.54007 12.1278C8.62003 12.1278 8.69998 12.0973 8.76102 12.0363L10.0138 10.7834C10.1359 10.6615 10.1359 10.4636 10.0138 10.3416C9.89175 10.2195 9.69388 10.2195 9.57193 10.3416L8.54007 11.3734L8.07547 10.9088Z" fill="black"/>
<path d="M15.8857 10.9609C15.8035 10.9609 15.7229 10.9944 15.6648 11.0526C15.6067 11.1107 15.5732 11.1913 15.5732 11.2734C15.5732 11.356 15.6067 11.4363 15.6648 11.4948C15.7229 11.5529 15.8035 11.5859 15.8857 11.5859C15.9679 11.5859 16.0485 11.5529 16.1067 11.4948C16.1648 11.4363 16.1982 11.3557 16.1982 11.2734C16.1982 11.1913 16.1648 11.111 16.1067 11.0526C16.0485 10.9944 15.9679 10.9609 15.8857 10.9609Z" fill="black"/>
</g>
<defs>
<clipPath id="clip0">
<rect width="16" height="16" fill="white" transform="translate(0.823242)"/>
</clipPath>
</defs>
</svg>
